<?xml version="1.0" standalone="no"?>
<!DOCTYPE svg PUBLIC "-//W3C//DTD SVG 20010904//EN"
 "http://www.w3.org/TR/2001/REC-SVG-20010904/DTD/svg10.dtd">
<svg version="1.0" xmlns="http://www.w3.org/2000/svg"
 width="1056.000000pt" height="1056.000000pt" viewBox="0 0 1056.000000 1056.000000"
 preserveAspectRatio="xMidYMid meet">
<metadata>
Created by potrace 1.14, written by Peter Selinger 2001-2017
</metadata>
<g transform="translate(0.000000,1056.000000) scale(0.100000,-0.100000)"
fill="#000000" stroke="none">
<path d="M490 8613 c-88 -11 -181 -48 -236 -94 -47 -40 -124 -122 -124 -134 0
-2 -11 -21 -25 -41 -27 -40 -60 -135 -70 -206 -8 -48 -9 -3165 -1 -3213 6 -44
16 -87 25 -110 27 -66 57 -130 64 -133 4 -2 7 -8 7 -13 0 -8 9 -20 57 -75 69
-78 187 -140 291 -150 31 -3 59 -7 63 -10 4 -2 10 0 14 6 4 6 10 8 14 6 14 -9
126 26 176 54 128 73 228 213 261 365 17 82 19 201 19 1128 0 548 2 997 5 997
3 0 28 -21 55 -47 94 -87 151 -138 220 -198 37 -33 80 -71 94 -85 14 -14 44
-40 66 -59 67 -57 223 -202 299 -277 112 -111 236 -163 391 -164 155 -1 266
53 418 203 45 45 118 114 162 152 43 39 86 77 95 85 8 8 51 47 95 85 44 39 91
81 105 95 26 25 139 126 213 189 37 33 37 33 38 10 1 -13 0 -28 -1 -34 -6 -26
-4 -175 2 -175 4 0 5 -6 2 -13 -8 -23 -10 -97 -2 -97 4 0 4 -11 -1 -23 -5 -13
-5 -30 -1 -37 5 -8 6 -18 3 -22 -8 -14 -7 -153 1 -166 4 -7 4 -12 -1 -12 -4 0
-8 -13 -8 -30 0 -16 3 -30 7 -30 4 0 4 -11 -1 -23 -5 -13 -5 -30 -1 -37 5 -8
6 -18 3 -22 -7 -13 -8 -156 0 -164 3 -3 2 -17 -4 -31 -6 -17 -6 -22 3 -17 7 5
8 3 3 -6 -4 -7 -7 -49 -6 -94 2 -116 2 -112 -1 -209 -2 -48 0 -87 3 -87 3 0 3
-20 -1 -45 -4 -28 -3 -42 3 -38 6 4 7 1 2 -7 -4 -7 -7 -49 -6 -94 2 -116 2
-112 -1 -209 -2 -48 -1 -87 2 -87 3 0 4 -17 2 -37 -8 -103 2 -243 20 -277 6
-12 11 -23 10 -26 -4 -12 23 -78 50 -121 15 -25 28 -49 28 -52 0 -8 112 -119
136 -134 100 -65 245 -93 344 -67 14 4 34 9 44 11 11 2 47 19 80 38 120 67
221 206 262 360 18 67 19 140 18 1670 0 1702 2 1642 -47 1760 -59 142 -210
280 -341 312 -55 13 -134 14 -185 3 -81 -18 -121 -38 -206 -103 -19 -14 -126
-102 -148 -122 -10 -9 -196 -161 -251 -205 -10 -8 -37 -32 -60 -52 -22 -21
-44 -38 -48 -38 -4 0 -15 -8 -25 -18 -10 -10 -43 -38 -73 -62 -30 -24 -59 -49
-65 -54 -5 -6 -30 -27 -55 -46 -25 -19 -47 -37 -50 -40 -3 -3 -18 -16 -35 -29
-29 -22 -66 -52 -160 -131 -22 -19 -61 -51 -85 -70 -24 -19 -54 -44 -66 -55
-13 -11 -62 -51 -111 -90 -48 -38 -91 -75 -96 -82 -9 -15 -32 -7 -66 23 -26
23 -76 64 -161 134 -23 19 -50 42 -60 50 -10 8 -38 31 -61 50 -165 134 -295
244 -297 251 -2 5 -8 9 -13 9 -5 0 -38 24 -72 53 -34 28 -85 70 -112 92 -27
22 -65 54 -84 71 -20 16 -83 68 -141 114 -58 47 -112 92 -120 100 -29 29 -205
167 -245 192 -65 41 -180 69 -245 61z"/>
<path d="M5157 8604 c-1 -1 -45 -4 -97 -7 -111 -6 -121 -8 -191 -38 -93 -39
-124 -64 -161 -134 l-21 -40 -1 -1835 c-1 -1009 3 -1857 7 -1884 11 -63 41
-107 99 -146 68 -44 130 -65 228 -76 72 -8 380 -10 380 -2 0 4 6 5 13 2 20 -7
227 -10 227 -2 0 3 8 4 18 2 29 -8 702 -10 702 -2 0 4 6 5 13 2 23 -8 227 -9
227 -1 0 5 5 5 10 2 6 -4 130 -6 275 -6 243 0 269 2 310 20 61 27 97 69 129
149 32 83 37 107 40 205 3 90 -13 174 -50 252 -30 64 -63 99 -119 128 -39 20
-50 21 -827 21 -545 0 -788 3 -789 10 -1 6 -2 224 -3 484 l-1 472 265 1 c146
0 350 0 454 -1 184 -1 190 0 241 25 59 28 91 65 122 140 54 127 50 251 -10
375 -30 62 -62 96 -116 122 -45 22 -52 22 -496 24 -247 1 -452 2 -455 3 -3 0
-6 216 -5 479 l0 477 780 1 c429 1 793 4 808 7 28 6 98 52 105 69 2 5 9 14 16
21 26 27 81 172 71 188 -4 5 -2 9 2 9 10 0 9 158 -1 210 -33 169 -118 264
-241 269 -52 2 -1955 7 -1958 5z"/>
<path d="M8165 8604 c-5 -1 -53 -5 -105 -8 -117 -5 -147 -11 -230 -41 -96 -34
-155 -84 -175 -145 -16 -50 -17 -74 -16 -375 0 -11 0 -65 0 -120 0 -55 0 -104
0 -110 0 -5 0 -59 0 -120 0 -60 0 -119 0 -130 0 -11 0 -65 0 -120 0 -55 0
-104 0 -110 0 -5 0 -59 0 -120 0 -60 0 -119 0 -130 0 -11 0 -65 0 -120 0 -55
0 -104 0 -110 0 -5 0 -59 0 -120 0 -60 0 -119 0 -130 0 -11 0 -65 0 -120 0
-55 0 -104 0 -110 0 -5 0 -59 0 -120 0 -60 0 -119 0 -130 0 -11 0 -65 0 -120
0 -55 0 -104 0 -110 0 -41 0 -233 0 -245 0 -21 0 -301 0 -325 0 -11 0 -65 0
-120 0 -55 0 -104 0 -110 0 -5 0 -62 0 -125 0 -239 6 -333 20 -338 6 -2 11 -9
11 -15 1 -22 49 -67 97 -91 108 -54 171 -69 298 -70 122 -1 159 3 230 25 22 7
42 13 45 14 3 1 25 11 50 23 56 26 93 64 119 122 19 44 19 72 20 1005 0 528 0
971 0 985 1 18 20 -11 66 -95 36 -66 69 -127 75 -135 5 -8 26 -46 46 -85 20
-38 45 -82 56 -97 11 -16 16 -28 13 -28 -3 0 2 -12 13 -27 10 -16 32 -53 48
-83 15 -30 36 -67 46 -81 9 -14 15 -29 11 -33 -3 -3 -1 -6 5 -6 7 0 12 -4 12
-9 0 -5 31 -64 68 -132 65 -118 224 -407 282 -514 29 -53 116 -211 157 -285
14 -25 44 -79 66 -120 22 -41 57 -106 78 -143 22 -38 39 -71 39 -74 0 -20 87
-116 133 -146 83 -55 230 -89 392 -89 57 0 224 40 246 59 8 7 22 13 29 13 22
0 79 49 108 93 l27 42 2 1850 c2 1248 -1 1865 -8 1896 -6 25 -24 62 -40 82
-82 100 -379 160 -551 111 -9 -3 -26 -7 -39 -9 -46 -9 -155 -56 -180 -78 -24
-22 -71 -106 -68 -123 1 -5 1 -452 0 -993 l-1 -984 -41 79 c-54 104 -150 287
-209 399 -26 50 -73 140 -105 200 -32 61 -81 155 -110 210 -29 55 -79 152
-112 215 -59 112 -109 207 -204 388 -25 48 -77 148 -116 223 -191 370 -304
470 -543 483 -14 1 -29 4 -35 7 -5 4 -14 5 -20 3z"/>
<path d="M597 3904 c-1 -1 -27 -5 -57 -9 -82 -11 -81 -11 -139 -28 -192 -59
-317 -190 -370 -389 -19 -69 -20 -104 -17 -573 2 -478 5 -548 27 -570 5 -5 9
-17 9 -26 0 -32 61 -138 108 -187 39 -41 147 -124 147 -113 0 1 14 -3 30 -9
17 -7 39 -16 50 -20 11 -5 31 -11 45 -13 14 -3 36 -8 50 -12 38 -11 286 -14
323 -5 18 5 43 11 57 14 102 18 256 101 321 172 39 44 89 121 82 128 -4 3 -1
6 5 6 7 0 11 3 10 8 0 4 1 14 5 22 20 52 28 99 32 176 4 80 2 92 -21 135 -33
59 -84 82 -183 81 -78 -1 -99 -5 -145 -27 -47 -23 -56 -35 -63 -92 -3 -26 -7
-52 -8 -58 -1 -5 -5 -28 -10 -49 -20 -101 -91 -156 -203 -161 -130 -5 -222 59
-248 171 -3 16 -7 214 -8 439 -2 450 1 483 55 548 34 42 105 77 157 78 163 1
243 -58 257 -193 9 -78 13 -92 33 -116 26 -30 115 -57 182 -56 157 3 212 61
205 221 -4 80 -21 146 -58 218 -25 50 -128 152 -189 188 -48 28 -221 89 -242
85 -6 -1 -31 2 -56 7 -37 6 -168 13 -173 9z"/>
<path d="M2070 3898 c-36 -3 -76 -9 -90 -12 -14 -3 -36 -7 -49 -10 -47 -10
-121 -38 -126 -47 -4 -5 -13 -9 -22 -9 -16 0 -100 -66 -141 -110 -23 -26 -75
-107 -79 -125 -1 -5 -11 -35 -22 -65 -11 -30 -23 -75 -27 -100 -9 -57 -10
-917 -1 -987 15 -109 68 -229 134 -303 166 -184 504 -242 812 -139 104 35 209
119 268 213 25 41 69 171 78 231 11 72 7 946 -5 1000 -48 223 -159 355 -357
421 -88 29 -87 29 -168 39 -87 10 -132 11 -205 3z m189 -375 c50 -21 90 -60
114 -113 21 -43 21 -62 23 -475 1 -386 0 -435 -16 -481 -20 -58 -52 -99 -95
-122 -42 -22 -60 -26 -138 -26 -144 -1 -227 95 -224 257 1 37 -2 67 -6 67 -5
0 -5 4 -2 10 3 5 6 56 5 112 0 57 -1 112 -1 123 0 39 -1 230 0 240 0 27 0 172
-1 185 -3 85 53 182 125 216 58 26 161 30 216 7z"/>
<path d="M3225 3895 c-91 -17 -129 -41 -141 -91 -10 -37 -11 -1677 -2 -1732 4
-24 14 -49 21 -56 32 -32 97 -55 177 -61 54 -4 155 29 188 61 23 24 27 97 26
532 -1 346 1 429 11 415 7 -10 30 -49 50 -88 21 -38 47 -86 58 -105 11 -19 35
-64 55 -100 19 -36 42 -78 52 -95 10 -16 33 -59 52 -95 20 -36 46 -83 58 -105
13 -22 40 -71 60 -110 48 -89 112 -204 130 -231 38 -60 179 -94 287 -70 45 10
96 40 113 68 16 26 17 91 16 907 -1 861 -1 879 -21 901 -71 79 -288 82 -361 5
l-31 -33 -1 -449 c0 -246 -1 -457 -1 -468 -1 -18 -51 71 -127 225 -15 30 -30
57 -33 60 -3 3 -35 61 -70 130 -34 69 -80 157 -100 195 -20 39 -61 115 -89
169 -90 170 -137 213 -239 222 -32 3 -62 6 -68 8 -5 1 -37 -2 -70 -9z"/>
<path d="M4917 3904 c-2 -2 -20 -4 -41 -6 -20 -1 -40 -6 -42 -10 -3 -4 -13 -8
-22 -8 -23 0 -69 -41 -80 -71 -4 -13 -8 -416 -8 -896 l1 -872 33 -29 c18 -16
54 -36 80 -43 54 -15 170 -15 186 1 5 5 18 10 28 10 10 0 32 13 50 29 l33 29
3 409 c2 224 3 437 2 473 l-1 65 25 -40 c14 -22 26 -43 26 -48 0 -4 10 -24 23
-45 22 -34 44 -75 134 -242 20 -36 43 -78 53 -95 9 -16 33 -59 52 -95 43 -78
78 -142 129 -233 22 -38 39 -71 39 -73 0 -2 13 -25 30 -52 30 -49 88 -90 138
-98 126 -20 240 7 279 65 16 24 17 88 18 896 0 966 4 914 -67 947 -36 17 -174
39 -183 30 -3 -3 -16 -7 -31 -8 -36 -4 -111 -42 -121 -62 -4 -9 -10 -228 -13
-487 l-5 -470 -43 85 c-23 47 -66 130 -95 185 -29 55 -86 163 -126 240 -41 77
-96 183 -123 235 -92 175 -141 240 -198 262 -24 9 -158 27 -163 22z"/>
<path d="M6567 3904 c-1 -1 -22 -4 -47 -6 -25 -3 -61 -14 -81 -24 -72 -37 -68
18 -68 -949 1 -859 1 -870 21 -900 21 -31 59 -55 88 -55 9 0 20 -3 24 -7 12
-12 1007 -11 1036 1 111 47 112 302 1 345 -16 6 -167 10 -383 9 -196 0 -360 2
-365 5 -4 3 -8 103 -7 224 l0 218 220 5 c151 3 226 9 241 18 53 30 78 141 48
217 -29 77 -38 79 -289 85 l-220 5 1 200 c1 110 2 210 2 223 1 20 6 22 49 22
26 0 54 1 62 1 8 1 62 1 120 0 58 0 112 0 120 0 8 1 62 1 120 0 242 -3 278 0
304 20 29 23 59 96 61 148 3 84 -41 179 -87 187 -5 1 -9 2 -10 3 -3 3 -959 7
-961 5z"/>
<path d="M8367 3904 c-1 -1 -31 -5 -67 -8 -71 -8 -168 -32 -187 -48 -7 -6 -13
-8 -13 -4 0 17 -126 -64 -174 -112 -53 -53 -122 -172 -132 -229 -3 -15 -7 -30
-10 -34 -13 -21 -18 -165 -18 -544 0 -231 3 -447 7 -480 6 -64 45 -182 79
-243 33 -59 142 -158 204 -186 113 -52 190 -69 330 -72 72 -1 150 2 175 8 24
5 55 12 69 14 14 2 34 8 45 13 79 34 110 46 114 43 2 -2 7 0 10 5 3 4 24 20
46 34 108 70 195 201 220 330 10 51 8 166 -4 200 -6 20 -22 45 -34 57 -76 70
-301 56 -352 -22 -9 -13 -18 -47 -20 -75 -12 -173 -91 -253 -246 -246 -105 5
-167 46 -207 137 -19 45 -20 66 -20 475 0 455 1 467 49 538 34 50 90 77 168
83 155 11 247 -63 256 -205 6 -95 29 -122 124 -146 58 -15 168 -13 189 3 1 2
5 3 10 4 33 8 50 22 71 57 44 78 29 238 -32 353 -38 72 -106 143 -178 188 -30
18 -56 33 -59 33 -3 0 -10 3 -16 7 -15 10 -94 36 -126 42 -15 2 -32 7 -36 10
-12 7 -228 25 -235 20z"/>
<path d="M9284 3899 c-29 -4 -57 -10 -63 -13 -14 -9 -54 -86 -45 -86 4 0 2 -6
-4 -13 -16 -19 -7 -146 13 -184 35 -70 45 -73 266 -73 110 0 199 -3 200 -7 0
-5 1 -340 2 -745 l2 -736 25 -27 c29 -31 117 -59 181 -58 67 1 151 28 179 58
l25 27 2 731 c1 403 2 738 3 745 0 9 46 12 196 12 233 0 242 3 275 90 40 108
7 247 -66 274 -24 10 -1119 14 -1191 5z"/>
</g>
</svg>
