<svg id="question_answer_white_48dp"
    xmlns="http://www.w3.org/2000/svg" width="56.896" height="56.896" viewBox="0 0 56.896 56.896">
    <path id="Path_426" data-name="Path 426" d="M0,0H56.9V56.9H0Z" fill="none"/>
    <path id="Path_427" data-name="Path 427" d="M47.042,11.483H42.3V32.819H11.483V37.56a2.378,2.378,0,0,0,2.371,2.371H39.931l9.483,9.483V13.853A2.378,2.378,0,0,0,47.042,11.483ZM37.56,25.707V4.371A2.378,2.378,0,0,0,35.189,2H4.371A2.378,2.378,0,0,0,2,4.371V37.56l9.483-9.483H35.189A2.378,2.378,0,0,0,37.56,25.707Z" transform="translate(2.741 2.741)" fill="#fff"/>
</svg>
