<svg id="translate_white_48dp"
    xmlns="http://www.w3.org/2000/svg" width="57.756" height="57.756" viewBox="0 0 57.756 57.756">
    <path id="Path_428" data-name="Path 428" d="M0,0H57.756V57.756H0Z" fill="none"/>
    <path id="Path_429" data-name="Path 429" d="M29.565,33.453l-6.113-6.04.072-.072a42.16,42.16,0,0,0,8.928-15.714H39.5V6.813H22.659V2H17.846V6.813H1V11.6H27.881a37.813,37.813,0,0,1-7.629,12.9,37.65,37.65,0,0,1-5.559-8.062H9.88a42.263,42.263,0,0,0,7.171,10.974L4.8,39.493,8.22,42.911,20.252,30.878l7.484,7.484Zm13.549-12.2H38.3L27.472,50.13h4.813l2.7-7.22H46.411l2.719,7.22h4.813ZM36.809,38.1l3.9-10.42,3.9,10.42Z" transform="translate(1.407 2.813)" fill="#fff"/>
</svg>
