<svg id="Group_293" data-name="Group 293"
    xmlns="http://www.w3.org/2000/svg" width="183.366" height="183.366" viewBox="0 0 183.366 183.366">
    <path id="Path_414" data-name="Path 414" d="M94.011,60.372,26.777,14.531A3.054,3.054,0,0,0,22,17.055v91.683a3.055,3.055,0,0,0,4.777,2.524L94.011,65.421a3.053,3.053,0,0,0,0-5.049Zm-65.9,42.581V22.84L86.866,62.9Z" transform="translate(45.234 28.787)" fill="#fff"/>
    <path id="Path_415" data-name="Path 415" d="M91.683,0a91.683,91.683,0,1,0,91.683,91.683A91.787,91.787,0,0,0,91.683,0Zm0,177.254a85.571,85.571,0,1,1,85.571-85.571A85.669,85.669,0,0,1,91.683,177.254Z" fill="#fff"/>
</svg>
