<svg id="share_white_48dp"
    xmlns="http://www.w3.org/2000/svg" width="57.756" height="57.756" viewBox="0 0 57.756 57.756">
    <path id="Path_430" data-name="Path 430" d="M0,0H57.756V57.756H0Z" fill="none"/>
    <path id="Path_431" data-name="Path 431" d="M39.1,35.884a7.008,7.008,0,0,0-4.717,1.853L17.222,27.75a7.878,7.878,0,0,0,.217-1.685,7.878,7.878,0,0,0-.217-1.685L34.188,14.49a7.2,7.2,0,1,0-2.31-5.27,7.878,7.878,0,0,0,.217,1.685L15.129,20.795a7.22,7.22,0,1,0,0,10.541L32.263,41.347a6.789,6.789,0,0,0-.193,1.564A7.027,7.027,0,1,0,39.1,35.884Z" transform="translate(4.22 2.813)" fill="#fff"/>
</svg>
