<svg xmlns="http://www.w3.org/2000/svg" width="698.619" height="1063.504" viewBox="0 0 698.619 1063.504">
    <path id="Path_180" data-name="Path 180" d="M194.293,1252.2c2.727-9.513,9.168-18.581,7.788-29.661,0-8.96-.3-16.661-.3-25.621,3.572-25.085,21.626-41.756,34.129-63.259,1.786-1.792,0-5.374,1.786-7.166,1.786-3.585,4.215-8.037,4.215-11.62s5.551-8.552-5.166-8.552c-10.717-1.792-20.484-3.124-25.841-13.875-5.36-12.543-9.731-27.287-21.434-32.254-2.327-.987-1.788-5.374-5.36-8.957-3.572-7.168,0-16.128-5.357-21.5-12.506-7.168-23.223-17.92-17.863-32.254,5.357-10.751,14.289-23.3,7.146-37.63-10.717-23.294,10.717-37.628,25.006-51.964-1.786,0-5.36,3.585-3.572,3.585s1.786-1.791,3.9-3.137c-12.659-12.8-1.058.843,0,0-12.827-12.991-27.119-25.534-30.69-43.453-1.786-7.166-.72-18.306,7.146-19.708,37.619-6.712,74.5-9.928,110.7-3.27,12.342,2.268,22.709-2.412,28.58-14.947,7.48-15.972,11.136-32.023,20.065-46.359a209.161,209.161,0,0,1,56.782-48.312c21.434-10.751,44.655-19.711,66.089-30.462,16.077-7.166,27.837-8.637,43.763-25.511,2.458-2.6-2.189-11.384-3.975-14.967-23.22-41.213-41.538-74.382-64.758-115.595-10.717-21.5-18.89-42.318-20.676-67.406,0-5.374-2.849-12.276-8.208-15.859-7.146-7.168-8.663-15.105-8.663-24.065,0-55.547-8.931-112.889,25.008-163.059,1.786-1.794,1.786-5.377,1.786-7.168,17.86-37.63,55.967-69.146,91.626-74.1,52.917-7.361,119.744-13.224,161.44,31.72,25.816,27.825,37.626,70.109,48.344,111.323.792,2.389,2.884,4.357,5.437,6.12a45.857,45.857,0,0,1,17.561,23c.141.423-1.242.833-1.109,1.233,1.786,10.751,1.558,14.4,3.344,25.154,3.572,32.253-1.216,49.717-15.5,78.385-1.786,3.585-1.52,17.8-1.52,23.181,1.786,14.334,8.208,29.583,8.208,43.92,1.786,8.96-.761,20.931,6.384,29.888,7.146,7.168,24.778,8.122,31.924,17.081,5.357,8.96,10.49,18.453,17.633,25.618,3.574,3.586,11.933,4,15.507,5.8,16.881,6.512,35.472,7.715,51.966,14.473" transform="translate(-159.067 -188.789)" fill="none" stroke="#132c38" stroke-miterlimit="10" stroke-width="0.699"/>
</svg>
