<svg xmlns="http://www.w3.org/2000/svg" width="766.415" height="766.415" viewBox="0 0 766.415 766.415">
    <g id="Group_293" data-name="Group 293" transform="translate(-577 451.207)">
        <g id="Path_182" data-name="Path 182" transform="translate(577 -451.207)" fill="#122d3b">
            <path d="M 383.2073059082031 764.9146118164062 C 370.1863098144531 764.9146118164062 357.0549926757812 764.2515258789062 344.1781005859375 762.9437866210938 C 331.4880981445312 761.6550903320312 318.73681640625 759.708984375 306.2784118652344 757.1596069335938 C 281.7713012695312 752.144775390625 257.6653137207031 744.6619262695312 234.6301116943359 734.9188232421875 C 212.0127105712891 725.3524169921875 190.1981048583984 713.5117797851562 169.7922058105469 699.7258911132812 C 149.5798034667969 686.0706787109375 130.5729064941406 670.3884887695312 113.2995071411133 653.1151123046875 C 96.02610778808594 635.8417358398438 80.34400939941406 616.8347778320312 66.68870544433594 596.6224975585938 C 52.90280532836914 576.2166137695312 41.06220626831055 554.4019775390625 31.49580574035645 531.7846069335938 C 21.75280570983887 508.7492980957031 14.26980590820312 484.643310546875 9.255005836486816 460.1361999511719 C 6.705605983734131 447.6779174804688 4.759505748748779 434.926513671875 3.470805883407593 422.2365112304688 C 2.163105964660645 409.359619140625 1.500005960464478 396.2283020019531 1.500005960464478 383.2073059082031 C 1.500005960464478 370.1863098144531 2.163105964660645 357.0549926757812 3.470805883407593 344.1781005859375 C 4.759505748748779 331.4880981445312 6.705605983734131 318.73681640625 9.255005836486816 306.2784118652344 C 14.26980590820312 281.7713012695312 21.75280570983887 257.6653137207031 31.49580574035645 234.6301116943359 C 41.06220626831055 212.0127105712891 52.90280532836914 190.1981048583984 66.68870544433594 169.7922058105469 C 80.34400939941406 149.5798034667969 96.02610778808594 130.5729064941406 113.2995071411133 113.2995071411133 C 130.5729064941406 96.02610778808594 149.5798034667969 80.34400939941406 169.7922058105469 66.68870544433594 C 190.1981048583984 52.90280532836914 212.0127105712891 41.06220626831055 234.6301116943359 31.49580574035645 C 257.6653137207031 21.75280570983887 281.7713012695312 14.26980590820312 306.2784118652344 9.255005836486816 C 318.73681640625 6.705605983734131 331.4880981445312 4.759505748748779 344.1781005859375 3.470805883407593 C 357.0549926757812 2.163105964660645 370.1863098144531 1.500005960464478 383.2073059082031 1.500005960464478 C 396.2283020019531 1.500005960464478 409.359619140625 2.163105964660645 422.2365112304688 3.470805883407593 C 434.926513671875 4.759505748748779 447.6779174804688 6.705605983734131 460.1361999511719 9.255005836486816 C 484.643310546875 14.26980590820312 508.7492980957031 21.75280570983887 531.7846069335938 31.49580574035645 C 554.4019775390625 41.06220626831055 576.2166137695312 52.90280532836914 596.6224975585938 66.68870544433594 C 616.8347778320312 80.34400939941406 635.8417358398438 96.02610778808594 653.1151123046875 113.2995071411133 C 670.3884887695312 130.5729064941406 686.0706787109375 149.5798034667969 699.7258911132812 169.7922058105469 C 713.5117797851562 190.1981048583984 725.3524169921875 212.0127105712891 734.9188232421875 234.6301116943359 C 744.6619262695312 257.6653137207031 752.144775390625 281.7713012695312 757.1596069335938 306.2784118652344 C 759.708984375 318.73681640625 761.6550903320312 331.4880981445312 762.9437866210938 344.1781005859375 C 764.2515258789062 357.0549926757812 764.9146118164062 370.1863098144531 764.9146118164062 383.2073059082031 C 764.9146118164062 396.2283020019531 764.2515258789062 409.359619140625 762.9437866210938 422.2365112304688 C 761.6550903320312 434.926513671875 759.708984375 447.6779174804688 757.1596069335938 460.1361999511719 C 752.144775390625 484.643310546875 744.6619262695312 508.7492980957031 734.9188232421875 531.7846069335938 C 725.3524169921875 554.4019775390625 713.5117797851562 576.2166137695312 699.7258911132812 596.6224975585938 C 686.0706787109375 616.8347778320312 670.3884887695312 635.8417358398438 653.1151123046875 653.1151123046875 C 635.8417358398438 670.3884887695312 616.8347778320312 686.0706787109375 596.6224975585938 699.7258911132812 C 576.2166137695312 713.5117797851562 554.4019775390625 725.3524169921875 531.7846069335938 734.9188232421875 C 508.7492980957031 744.6619262695312 484.643310546875 752.144775390625 460.1361999511719 757.1596069335938 C 447.6779174804688 759.708984375 434.926513671875 761.6550903320312 422.2365112304688 762.9437866210938 C 409.359619140625 764.2515258789062 396.2283020019531 764.9146118164062 383.2073059082031 764.9146118164062 Z" stroke="none"/>
            <path d="M 383.2073059082031 3 C 370.2366943359375 3 357.1564025878906 3.6605224609375 344.3297119140625 4.963134765625 C 331.6895141601562 6.246826171875 318.9884033203125 8.1851806640625 306.5791015625 10.7244873046875 C 282.1690063476562 15.719482421875 258.1584167480469 23.17279052734375 235.2144165039062 32.8773193359375 C 212.6862182617188 42.406005859375 190.95751953125 54.19989013671875 170.6318969726562 67.93157958984375 C 150.4985961914062 81.53338623046875 131.5659790039062 97.15423583984375 114.360107421875 114.360107421875 C 97.15423583984375 131.5659790039062 81.53338623046875 150.4985961914062 67.93157958984375 170.6318969726562 C 54.19989013671875 190.95751953125 42.406005859375 212.6862182617188 32.8773193359375 235.2144165039062 C 23.17279052734375 258.1584167480469 15.719482421875 282.1690063476562 10.7244873046875 306.5791015625 C 8.1851806640625 318.9884033203125 6.246826171875 331.6895141601562 4.963134765625 344.3297119140625 C 3.6605224609375 357.1564025878906 3 370.2366943359375 3 383.2073059082031 C 3 396.1779174804688 3.6605224609375 409.2582092285156 4.963134765625 422.0848999023438 C 6.246826171875 434.72509765625 8.1851806640625 447.4262084960938 10.7244873046875 459.8355102539062 C 15.719482421875 484.24560546875 23.17279052734375 508.256103515625 32.8773193359375 531.2001953125 C 42.406005859375 553.7283935546875 54.19989013671875 575.4570922851562 67.93157958984375 595.78271484375 C 81.53338623046875 615.916015625 97.15423583984375 634.8485107421875 114.360107421875 652.0543823242188 C 131.5659790039062 669.2603759765625 150.4985961914062 684.881103515625 170.6318969726562 698.48291015625 C 190.95751953125 712.214599609375 212.6862182617188 724.0086059570312 235.2144165039062 733.5372924804688 C 258.1584167480469 743.2418212890625 282.1690063476562 750.6951293945312 306.5791015625 755.6901245117188 C 318.9884033203125 758.2294311523438 331.6895141601562 760.1677856445312 344.3297119140625 761.4514770507812 C 357.1564025878906 762.7540893554688 370.2366943359375 763.4146118164062 383.2073059082031 763.4146118164062 C 396.1779174804688 763.4146118164062 409.2582092285156 762.7540893554688 422.0848999023438 761.4514770507812 C 434.72509765625 760.1677856445312 447.4262084960938 758.2294311523438 459.8355102539062 755.6901245117188 C 484.24560546875 750.6951293945312 508.256103515625 743.2418212890625 531.2001953125 733.5372924804688 C 553.7283935546875 724.0086059570312 575.4570922851562 712.214599609375 595.78271484375 698.48291015625 C 615.916015625 684.881103515625 634.8485107421875 669.2603149414062 652.0543823242188 652.0543823242188 C 669.2603149414062 634.8485107421875 684.881103515625 615.916015625 698.48291015625 595.78271484375 C 712.214599609375 575.4570922851562 724.0086059570312 553.7283935546875 733.5372924804688 531.2001953125 C 743.2418212890625 508.256103515625 750.6951293945312 484.24560546875 755.6901245117188 459.8355102539062 C 758.2294311523438 447.4262084960938 760.1677856445312 434.72509765625 761.4514770507812 422.0848999023438 C 762.7540893554688 409.2582092285156 763.4146118164062 396.1779174804688 763.4146118164062 383.2073059082031 C 763.4146118164062 370.2366943359375 762.7540893554688 357.1564025878906 761.4514770507812 344.3297119140625 C 760.1677856445312 331.6895141601562 758.2294311523438 318.9884033203125 755.6901245117188 306.5791015625 C 750.6951293945312 282.1690063476562 743.2418212890625 258.1584167480469 733.5372924804688 235.2144165039062 C 724.0086059570312 212.6862182617188 712.214599609375 190.95751953125 698.48291015625 170.6318969726562 C 684.881103515625 150.4985961914062 669.2603759765625 131.5659790039062 652.0543823242188 114.360107421875 C 634.8485107421875 97.15423583984375 615.916015625 81.53338623046875 595.78271484375 67.93157958984375 C 575.4570922851562 54.19989013671875 553.7283935546875 42.406005859375 531.2001953125 32.8773193359375 C 508.256103515625 23.17279052734375 484.24560546875 15.719482421875 459.8355102539062 10.7244873046875 C 447.4262084960938 8.1851806640625 434.72509765625 6.246826171875 422.0848999023438 4.963134765625 C 409.2582092285156 3.6605224609375 396.1779174804688 3 383.2073059082031 3 M 383.2073059082031 0 C 594.8468017578125 0 766.4146118164062 171.5676879882812 766.4146118164062 383.2073059082031 C 766.4146118164062 594.8468017578125 594.8468017578125 766.4146118164062 383.2073059082031 766.4146118164062 C 171.5676879882812 766.4146118164062 0 594.8468017578125 0 383.2073059082031 C 0 171.5676879882812 171.5676879882812 0 383.2073059082031 0 Z" stroke="none" fill="#fde900"/>
        </g>
        <g id="Group_63" data-name="Group 63" transform="translate(539.967 -444.724)">
            <g id="Group_1" data-name="Group 1" transform="translate(317.023 501.464)">
                <path id="Path_1" data-name="Path 1" d="M318.028,497.439c.064.1.127.194.2.286l.048.067q.091.124.181.239l.1.111c.051.064.1.124.156.185s.1.108.153.162.079.086.121.127q.143.143.3.277l0,0,0,0,2.889,2.424,14.114,11.839V552.44c0,6.214-4.362,11.25-9.742,11.25s-9.739-5.036-9.739-11.25V493.535a9.373,9.373,0,0,0,1.225,3.882Z" transform="translate(-316.79 -493.535)" fill="#ffe200"/>
            </g>
            <g id="Group_2" data-name="Group 2" transform="translate(317.023 490.023)">
                <path id="Path_2" data-name="Path 2" d="M316.8,500.973h0c0-.194.013-.388.022-.582.013-.172.026-.344.045-.515,0-.061.013-.121.019-.185.013-.108.025-.216.041-.325.006-.067.019-.13.029-.2.016-.1.032-.2.051-.305l.035-.194c.019-.1.038-.2.06-.305l.041-.178c.025-.1.048-.21.076-.312l.045-.165c.029-.108.057-.213.086-.318l.048-.153c.035-.108.067-.216.1-.321l.048-.14c.022-.067.045-.131.067-.194l.029-.073c.032-.076.06-.149.1-.226l.009-.026.038-.092.054-.111c.076-.159.153-.315.235-.471l.067-.121a11.274,11.274,0,0,1,.7-1.123l.092-.13c.13-.181.264-.36.407-.534h0v0c.13-.159.264-.312.4-.461l.118-.127c.105-.111.21-.223.318-.331l.111-.108c.143-.14.29-.277.439-.407l.01-.006c.146-.13.3-.251.449-.372l.1-.073c.137-.1.28-.21.423-.309l.051-.035a10.7,10.7,0,0,1,1.044-.63l.013-.006.048-.025a8.139,8.139,0,0,1,8.584.888,11.778,11.778,0,0,1,3.923,4.706l.029.073c.045.114.086.232.127.35l.051.153c.035.1.07.207.1.312l.06.2c.026.1.054.194.08.29l.057.235c.022.092.045.181.067.274s.038.175.054.264.035.172.051.258.032.191.048.29c.013.079.029.162.038.245.016.1.029.21.041.318.009.073.019.15.025.226.013.121.022.245.032.366,0,.064.01.127.013.188.013.188.019.376.025.563h.006v20.55l-14.114-12.249-2.889-2.507,0,0h0c-.1-.1-.2-.191-.3-.29-.041-.041-.079-.086-.121-.13s-.1-.111-.153-.165-.1-.13-.156-.194l-.1-.115c-.06-.08-.121-.162-.181-.245l-.048-.07c-.07-.1-.134-.2-.2-.3l-.013-.022a8.52,8.52,0,0,1-1.225-4.178v-.083Z" transform="translate(-316.79 -489.939)" fill="#fff"/>
            </g>
            <g id="Group_5" data-name="Group 5" transform="translate(408.149 490.271)">
                <g id="Group_3" data-name="Group 3">
                    <path id="Path_3" data-name="Path 3" d="M353,571.366a10.425,10.425,0,0,1-5.173-1.333,4.315,4.315,0,0,1-2.393-4.006V495.359a4.312,4.312,0,0,1,2.393-4.006A10.429,10.429,0,0,1,353,490.017h39.618a4.174,4.174,0,0,1,4.006,2.393,10.955,10.955,0,0,1,1.225,5.065,10.483,10.483,0,0,1-1.336,5.4,4.258,4.258,0,0,1-3.895,2.281H362.79v18.807h16.694a4.358,4.358,0,0,1,3.894,2.058,8.5,8.5,0,0,1,1.336,4.731,8.868,8.868,0,0,1-1.225,4.394,4.246,4.246,0,0,1-4.006,2.17H362.79v18.918h29.825a4.261,4.261,0,0,1,3.895,2.285,10.483,10.483,0,0,1,1.336,5.4,10.934,10.934,0,0,1-1.225,5.062,4.169,4.169,0,0,1-4.006,2.393Z" transform="translate(-345.431 -490.017)" fill="#fff"/>
                </g>
                <g id="Group_4" data-name="Group 4" transform="translate(57.757)">
                    <path id="Path_4" data-name="Path 4" d="M372.264,571.366a13.324,13.324,0,0,1-5.953-1.333,4.275,4.275,0,0,1-2.727-4.006V495.359a4.244,4.244,0,0,1,2.727-4.063,13.825,13.825,0,0,1,5.953-1.279,22.35,22.35,0,0,1,5.173.5,7.84,7.84,0,0,1,3.786,2.281,25.683,25.683,0,0,1,3.837,5.9l18.027,34.387V495.248a4.142,4.142,0,0,1,2.727-4.006,15.085,15.085,0,0,1,11.909,0,4.142,4.142,0,0,1,2.727,4.006v70.779a4.28,4.28,0,0,1-2.727,4.006,13.344,13.344,0,0,1-5.953,1.333,16.792,16.792,0,0,1-5.565-.887,7.5,7.5,0,0,1-4.117-3.786l-21.145-38.5v37.839a4.28,4.28,0,0,1-2.727,4.006A13.334,13.334,0,0,1,372.264,571.366Z" transform="translate(-363.584 -490.017)" fill="#fff"/>
                </g>
            </g>
            <g id="Group_6" data-name="Group 6" transform="translate(316.683 582.125)">
                <path id="Path_5" data-name="Path 5" d="M329.171,557.239a16.021,16.021,0,0,1-6.246-1.2,9.658,9.658,0,0,1-4.553-3.9,13.425,13.425,0,0,1-1.689-7.181V531.168a13.426,13.426,0,0,1,1.689-7.181,9.658,9.658,0,0,1,4.553-3.9,16.022,16.022,0,0,1,6.246-1.2,17.312,17.312,0,0,1,6.688,1.222,10.89,10.89,0,0,1,4.655,3.513,9.1,9.1,0,0,1,1.718,5.619q0,2.344-.989,3.1a5.065,5.065,0,0,1-3.07.754,6.829,6.829,0,0,1-2.784-.522,2.1,2.1,0,0,1-1.273-1.925,8.3,8.3,0,0,0-.13-1.3,5.165,5.165,0,0,0-.547-1.559,3.261,3.261,0,0,0-1.352-1.3,5.4,5.4,0,0,0-2.6-.522,4.577,4.577,0,0,0-3.462,1.276,5.5,5.5,0,0,0-1.222,3.929v13.789a5.419,5.419,0,0,0,1.25,3.929,4.647,4.647,0,0,0,3.484,1.273,5,5,0,0,0,2.472-.519,3.245,3.245,0,0,0,1.327-1.327,5.849,5.849,0,0,0,.573-1.692,15.42,15.42,0,0,0,.21-1.664,2.081,2.081,0,0,1,1.273-1.95,6.97,6.97,0,0,1,2.733-.5,5.166,5.166,0,0,1,3.121.754q.988.754.989,3.1a9.978,9.978,0,0,1-1.718,5.883,10.793,10.793,0,0,1-4.655,3.719A16.679,16.679,0,0,1,329.171,557.239Z" transform="translate(-316.683 -518.887)" fill="#fff"/>
                <path id="Path_6" data-name="Path 6" d="M338.626,557.239a16.772,16.772,0,0,1-6.481-1.2,9.643,9.643,0,0,1-4.578-3.9,13.394,13.394,0,0,1-1.693-7.181V531.168a13.4,13.4,0,0,1,1.693-7.181,9.643,9.643,0,0,1,4.578-3.9,16.773,16.773,0,0,1,6.481-1.2,16.968,16.968,0,0,1,6.5,1.2,9.631,9.631,0,0,1,4.6,3.9,13.4,13.4,0,0,1,1.693,7.181v13.789a13.4,13.4,0,0,1-1.693,7.181,9.631,9.631,0,0,1-4.6,3.9A16.967,16.967,0,0,1,338.626,557.239Zm0-7.079a4.634,4.634,0,0,0,3.433-1.247,5.405,5.405,0,0,0,1.25-3.955V531.168a5.4,5.4,0,0,0-1.25-3.955,4.635,4.635,0,0,0-3.433-1.25,4.553,4.553,0,0,0-3.411,1.25,5.481,5.481,0,0,0-1.222,3.955v13.789a5.487,5.487,0,0,0,1.222,3.955A4.552,4.552,0,0,0,338.626,550.16Z" transform="translate(-296.631 -518.887)" fill="#fff"/>
                <path id="Path_7" data-name="Path 7" d="M339.6,556.927a6.28,6.28,0,0,1-2.784-.624,2,2,0,0,1-1.276-1.874V521.385a1.983,1.983,0,0,1,1.276-1.9,6.441,6.441,0,0,1,2.784-.6,10.505,10.505,0,0,1,2.421.232,3.662,3.662,0,0,1,1.769,1.069,11.929,11.929,0,0,1,1.794,2.755l8.431,16.08V521.331a1.933,1.933,0,0,1,1.273-1.871,7.06,7.06,0,0,1,5.571,0,1.933,1.933,0,0,1,1.273,1.871v33.1a2,2,0,0,1-1.273,1.874,6.293,6.293,0,0,1-2.787.624,7.862,7.862,0,0,1-2.6-.417,3.492,3.492,0,0,1-1.925-1.769l-9.889-18.005v17.693a2,2,0,0,1-1.276,1.874A6.28,6.28,0,0,1,339.6,556.927Z" transform="translate(-275.544 -518.887)" fill="#fff"/>
                <path id="Path_8" data-name="Path 8" d="M349.724,556.927a6.28,6.28,0,0,1-2.784-.624,2,2,0,0,1-1.276-1.874V521.385a1.983,1.983,0,0,1,1.276-1.9,6.441,6.441,0,0,1,2.784-.6,10.5,10.5,0,0,1,2.421.232,3.661,3.661,0,0,1,1.769,1.069,11.923,11.923,0,0,1,1.794,2.755l8.431,16.08V521.331a1.933,1.933,0,0,1,1.273-1.871,7.052,7.052,0,0,1,5.568,0,1.932,1.932,0,0,1,1.276,1.871v33.1a2,2,0,0,1-1.276,1.874,6.28,6.28,0,0,1-2.784.624,7.862,7.862,0,0,1-2.6-.417,3.508,3.508,0,0,1-1.928-1.769l-9.885-18.005v17.693a2,2,0,0,1-1.276,1.874A6.28,6.28,0,0,1,349.724,556.927Z" transform="translate(-253.457 -518.887)" fill="#fff"/>
                <path id="Path_9" data-name="Path 9" d="M359.329,556.927a4.91,4.91,0,0,1-2.421-.624,2.026,2.026,0,0,1-1.12-1.874V521.385a2.023,2.023,0,0,1,1.12-1.874,4.878,4.878,0,0,1,2.421-.624h18.524A1.952,1.952,0,0,1,379.727,520a5.138,5.138,0,0,1,.573,2.37,4.9,4.9,0,0,1-.624,2.523,2,2,0,0,1-1.823,1.066H363.908v8.794h7.8a2.039,2.039,0,0,1,1.823.964,3.968,3.968,0,0,1,.624,2.211,4.142,4.142,0,0,1-.573,2.055A1.982,1.982,0,0,1,371.712,541h-7.8v8.845h13.945a1.994,1.994,0,0,1,1.823,1.069,4.9,4.9,0,0,1,.624,2.523,5.116,5.116,0,0,1-.573,2.367,1.949,1.949,0,0,1-1.874,1.12Z" transform="translate(-231.37 -518.887)" fill="#fff"/>
                <path id="Path_10" data-name="Path 10" d="M376.847,557.239a16.02,16.02,0,0,1-6.245-1.2,9.686,9.686,0,0,1-4.553-3.9,13.424,13.424,0,0,1-1.69-7.181V531.168a13.425,13.425,0,0,1,1.69-7.181,9.686,9.686,0,0,1,4.553-3.9,16.021,16.021,0,0,1,6.245-1.2,17.3,17.3,0,0,1,6.688,1.222,10.9,10.9,0,0,1,4.658,3.513,9.117,9.117,0,0,1,1.715,5.619q0,2.344-.986,3.1a5.072,5.072,0,0,1-3.07.754,6.818,6.818,0,0,1-2.784-.522,2.1,2.1,0,0,1-1.276-1.925,8.292,8.292,0,0,0-.131-1.3,5.076,5.076,0,0,0-.547-1.559,3.262,3.262,0,0,0-1.352-1.3,5.4,5.4,0,0,0-2.6-.522,4.564,4.564,0,0,0-3.458,1.276,5.487,5.487,0,0,0-1.225,3.929v13.789a5.42,5.42,0,0,0,1.25,3.929,4.66,4.66,0,0,0,3.487,1.273,4.975,4.975,0,0,0,2.469-.519,3.272,3.272,0,0,0,1.33-1.327,5.944,5.944,0,0,0,.573-1.692,16.308,16.308,0,0,0,.207-1.664,2.083,2.083,0,0,1,1.276-1.95,6.942,6.942,0,0,1,2.73-.5,5.184,5.184,0,0,1,3.124.754q.988.754.986,3.1a10,10,0,0,1-1.715,5.883,10.8,10.8,0,0,1-4.658,3.719A16.669,16.669,0,0,1,376.847,557.239Z" transform="translate(-212.671 -518.887)" fill="#fff"/>
                <path id="Path_11" data-name="Path 11" d="M386.617,556.927a6.27,6.27,0,0,1-2.784-.624,2,2,0,0,1-1.276-1.874V526.17h-7.181a1.994,1.994,0,0,1-1.794-1.117,5.013,5.013,0,0,1-.652-2.577,5.4,5.4,0,0,1,.573-2.447,1.948,1.948,0,0,1,1.874-1.142h22.478a1.948,1.948,0,0,1,1.874,1.142,5.4,5.4,0,0,1,.573,2.447,5.191,5.191,0,0,1-.624,2.577,1.982,1.982,0,0,1-1.823,1.117h-7.181v28.259A2,2,0,0,1,389.4,556.3,6.289,6.289,0,0,1,386.617,556.927Z" transform="translate(-193.974 -518.887)" fill="#fff"/>
            </g>
            <g id="Group_7" data-name="Group 7" transform="translate(380.628 501.343)">
                <path id="Path_12" data-name="Path 12" d="M355.025,497.4c-.064.1-.127.194-.2.29l-.048.067c-.06.08-.121.159-.181.235l-.1.112c-.051.064-.1.127-.156.188s-.1.105-.153.159-.08.086-.121.127c-.1.1-.194.188-.3.28h0l0,0-2.889,2.424-14.114,11.839V552.4c0,6.214,4.362,11.254,9.742,11.254s9.739-5.04,9.739-11.254V493.5a9.356,9.356,0,0,1-1.225,3.878Z" transform="translate(-336.781 -493.497)" fill="#fff"/>
            </g>
            <g id="Group_8" data-name="Group 8" transform="translate(358.566 492.097)">
                <path id="Path_13" data-name="Path 13" d="M352.026,519.884v-20.55h.006c0-.188.013-.375.022-.56.006-.064.013-.127.016-.191.009-.121.019-.242.032-.363.006-.076.019-.153.029-.229.013-.105.025-.213.041-.318.009-.083.026-.162.038-.245s.032-.194.051-.289.035-.172.051-.258.038-.175.057-.264.044-.181.067-.274l.064-.232c.025-.1.054-.194.083-.29l.06-.2c.035-.1.067-.21.1-.312l.057-.153c.041-.117.083-.232.127-.347l.032-.073c.684-1.705,2.638-3.207,3.182-4.146l-26.3,21.6,7.614,6.564a9.481,9.481,0,0,1,1.944,2.838,35.017,35.017,0,0,1,.738,3.563,10,10,0,0,1-.751,3.983c-.1.22-.2.439-.318.659a11.689,11.689,0,0,1-1.413,2.1c-.038.051-.919,1.689-.961,1.737l15.326-13.751Z" transform="translate(-329.847 -490.591)" fill="#fff"/>
            </g>
            <g id="Group_9" data-name="Group 9" transform="translate(357.613 512.95)">
                <path id="Path_14" data-name="Path 14" d="M329.548,497.145h0Z" transform="translate(-329.547 -497.145)" fill="#7e145c"/>
            </g>
            <g id="Group_10" data-name="Group 10" transform="translate(380.628 489.9)">
                <path id="Path_15" data-name="Path 15" d="M356.256,500.936h0c0-.2-.013-.391-.022-.585-.013-.172-.025-.344-.045-.512,0-.063-.013-.124-.019-.188-.013-.108-.025-.216-.041-.321-.006-.067-.019-.134-.029-.2-.016-.1-.032-.2-.051-.305l-.035-.191c-.019-.105-.038-.207-.06-.305l-.041-.181c-.025-.105-.048-.21-.076-.312l-.044-.166c-.029-.108-.057-.213-.086-.318l-.048-.153c-.035-.108-.067-.216-.105-.321l-.048-.14c-.022-.064-.044-.13-.067-.194l-.029-.07c-.032-.076-.06-.153-.1-.229l-.009-.022-.038-.092-.054-.114c-.076-.156-.153-.315-.236-.471l-.067-.121a11.3,11.3,0,0,0-.7-1.123l-.092-.13c-.13-.178-.264-.36-.407-.531v0h0c-.13-.159-.264-.312-.4-.461l-.118-.127c-.105-.115-.21-.223-.318-.331l-.111-.112c-.143-.14-.289-.277-.439-.407l-.009-.006c-.146-.127-.3-.251-.449-.369l-.1-.076c-.137-.1-.28-.21-.423-.309l-.051-.035a10.037,10.037,0,0,0-1.044-.627l-.013-.01-.048-.025a8.145,8.145,0,0,0-8.584.888,11.788,11.788,0,0,0-3.923,4.709l-.029.073c-.044.115-.086.229-.127.347l-.051.153c-.035.1-.07.207-.1.312l-.06.2c-.026.1-.054.191-.08.289l-.057.232c-.022.092-.044.181-.067.274s-.038.175-.054.264-.035.172-.051.258-.032.194-.048.29-.029.162-.038.245c-.016.1-.029.213-.041.318-.01.076-.019.153-.026.229-.013.121-.022.242-.032.363,0,.064-.009.127-.013.191-.013.185-.019.372-.025.563h-.006v20.547l14.114-12.25,2.889-2.507h0l0,0c.1-.092.2-.191.3-.286.041-.044.079-.089.121-.134s.1-.108.153-.165.1-.127.156-.194l.1-.114c.06-.08.121-.162.181-.245l.048-.07c.07-.1.134-.2.2-.3l.013-.022a8.538,8.538,0,0,0,1.225-4.178v-.083Z" transform="translate(-336.781 -489.901)" fill="#2162aa"/>
            </g>
            <g id="Group_11" data-name="Group 11" transform="translate(332.27 492.222)">
                <path id="Path_16" data-name="Path 16" d="M325.7,519.924v-20.55h-.006c0-.188-.013-.375-.022-.563-.007-.06-.013-.124-.016-.188-.01-.121-.019-.245-.032-.366-.006-.076-.019-.153-.029-.229-.013-.1-.026-.21-.041-.315-.009-.083-.025-.165-.038-.245-.016-.1-.032-.194-.051-.29s-.035-.172-.051-.258-.038-.178-.057-.264-.045-.181-.067-.273l-.064-.235c-.025-.1-.054-.191-.083-.29l-.06-.2c-.035-.1-.067-.21-.1-.312l-.057-.153c-.041-.118-.083-.235-.127-.35l-.032-.073c-.684-1.705-2.638-3.207-3.182-4.143l26.3,21.6-7.614,6.567a9.428,9.428,0,0,0-1.944,2.835,35.365,35.365,0,0,0-.738,3.564,10.02,10.02,0,0,0,.751,3.987c.1.22.2.439.318.655a11.58,11.58,0,0,0,1.413,2.1c.038.048.919,1.689.961,1.737L325.7,519.924Z" transform="translate(-321.582 -490.63)" fill="#2162aa"/>
            </g>
            <g id="Group_12" data-name="Group 12" transform="translate(348.13 513.698)">
                <path id="Path_17" data-name="Path 17" d="M347.35,512.353a10.467,10.467,0,1,1-17.044-9.243l6.7-5.73,6.739,5.749a9.968,9.968,0,0,1,3.608,9.224Z" transform="translate(-326.567 -497.38)" fill="#ffe200"/>
            </g>
            <g id="Group_13" data-name="Group 13" transform="translate(317.886 668.256)">
                <path id="Path_18" data-name="Path 18" d="M318.006,556.588a1.413,1.413,0,0,1-.649-.153.482.482,0,0,1-.3-.445V546.54a.521.521,0,0,1,.2-.407.777.777,0,0,1,.522-.175h2.908a4.238,4.238,0,0,1,1.68.321,2.516,2.516,0,0,1,1.184,1.04,3.663,3.663,0,0,1,.436,1.909v.089a3.583,3.583,0,0,1-.452,1.919,2.589,2.589,0,0,1-1.228,1.053,4.414,4.414,0,0,1-1.737.328h-1.626v3.372a.484.484,0,0,1-.293.445A1.379,1.379,0,0,1,318.006,556.588Zm.945-5.453h1.626a1.5,1.5,0,0,0,1.13-.414,1.767,1.767,0,0,0,.4-1.26v-.172a1.766,1.766,0,0,0-.4-1.26,1.506,1.506,0,0,0-1.13-.414h-1.626Z" transform="translate(-317.061 -545.958)" fill="#1f62ac"/>
                <path id="Path_19" data-name="Path 19" d="M322.886,556.674a4.353,4.353,0,0,1-1.731-.328,2.584,2.584,0,0,1-1.222-1.06,3.7,3.7,0,0,1-.452-1.941v-4.057a3.69,3.69,0,0,1,.452-1.941,2.616,2.616,0,0,1,1.212-1.063,4.414,4.414,0,0,1,1.74-.328,4.476,4.476,0,0,1,1.737.328,2.607,2.607,0,0,1,1.228,1.063,3.69,3.69,0,0,1,.449,1.941v4.057a3.7,3.7,0,0,1-.449,1.941,2.6,2.6,0,0,1-1.228,1.06A4.417,4.417,0,0,1,322.886,556.674Zm0-1.658a1.51,1.51,0,0,0,1.117-.407,1.713,1.713,0,0,0,.407-1.263v-4.057a1.717,1.717,0,0,0-.407-1.267,1.739,1.739,0,0,0-2.237,0,1.717,1.717,0,0,0-.407,1.267v4.057a1.713,1.713,0,0,0,.407,1.263A1.513,1.513,0,0,0,322.886,555.016Z" transform="translate(-311.779 -545.958)" fill="#1f62ac"/>
                <path id="Path_20" data-name="Path 20" d="M325.95,556.674a1.918,1.918,0,0,1-.77-.159.785.785,0,0,1-.465-.481l-2.879-9.144a.575.575,0,0,1-.029-.175.5.5,0,0,1,.188-.385,1.515,1.515,0,0,1,.474-.271,1.623,1.623,0,0,1,.544-.1.88.88,0,0,1,.4.089.392.392,0,0,1,.226.29l2.3,7.881,1.234-5.059a.613.613,0,0,1,.341-.394,1.325,1.325,0,0,1,.576-.13,1.389,1.389,0,0,1,.6.13.564.564,0,0,1,.325.394l1.238,5.059,2.3-7.881a.432.432,0,0,1,.232-.29.833.833,0,0,1,.391-.089,1.618,1.618,0,0,1,.554.1,1.5,1.5,0,0,1,.465.271.5.5,0,0,1,.188.385.583.583,0,0,1-.029.175l-2.876,9.144a.845.845,0,0,1-.468.481,1.841,1.841,0,0,1-.77.159,1.918,1.918,0,0,1-.77-.159.693.693,0,0,1-.436-.481l-.945-3.926-.932,3.926a.686.686,0,0,1-.436.481A1.906,1.906,0,0,1,325.95,556.674Z" transform="translate(-306.705 -545.958)" fill="#1f62ac"/>
                <path id="Path_21" data-name="Path 21" d="M326.807,556.588a1.1,1.1,0,0,1-.566-.153.486.486,0,0,1-.261-.445v-9.433a.487.487,0,0,1,.261-.446,1.107,1.107,0,0,1,.566-.153h5.177a.479.479,0,0,1,.458.264,1.145,1.145,0,0,1,.137.55,1.122,1.122,0,0,1-.153.6.492.492,0,0,1-.442.245H327.87v2.908h2.208a.507.507,0,0,1,.445.226.922.922,0,0,1,.153.531.962.962,0,0,1-.14.487.488.488,0,0,1-.458.239H327.87v2.924h4.114a.491.491,0,0,1,.442.245,1.122,1.122,0,0,1,.153.6,1.154,1.154,0,0,1-.137.55.479.479,0,0,1-.458.264Z" transform="translate(-297.603 -545.958)" fill="#1f62ac"/>
                <path id="Path_22" data-name="Path 22" d="M334.139,556.658a.685.685,0,0,1-.369-.115.791.791,0,0,1-.283-.334l-2.065-4.012H330.2v3.792a.481.481,0,0,1-.289.445,1.461,1.461,0,0,1-1.3,0,.48.48,0,0,1-.3-.445V546.54a.573.573,0,0,1,.169-.407.589.589,0,0,1,.442-.175H331.8a5.154,5.154,0,0,1,1.737.277,2.514,2.514,0,0,1,1.244.939,3.135,3.135,0,0,1,.464,1.823,3.675,3.675,0,0,1-.248,1.431,2.388,2.388,0,0,1-.674.945,2.834,2.834,0,0,1-.983.532l1.918,3.535a.556.556,0,0,1,.045.121.579.579,0,0,1,.016.111.79.79,0,0,1-.175.464,1.38,1.38,0,0,1-.442.379A1.2,1.2,0,0,1,334.139,556.658Zm-3.939-5.943h1.6a1.722,1.722,0,0,0,1.133-.35,1.921,1.921,0,0,0,0-2.406,1.738,1.738,0,0,0-1.133-.344h-1.6Z" transform="translate(-292.52 -545.958)" fill="#1f62ac"/>
                <path id="Path_23" data-name="Path 23" d="M331.645,556.588a1.116,1.116,0,0,1-.57-.153.492.492,0,0,1-.261-.445v-9.433a.494.494,0,0,1,.261-.446,1.119,1.119,0,0,1,.57-.153h5.173a.479.479,0,0,1,.458.264,1.15,1.15,0,0,1,.14.55,1.122,1.122,0,0,1-.153.6.5.5,0,0,1-.445.245H332.7v2.908h2.211a.5.5,0,0,1,.442.226.924.924,0,0,1,.153.531.957.957,0,0,1-.137.487.488.488,0,0,1-.458.239H332.7v2.924h4.114a.5.5,0,0,1,.445.245,1.122,1.122,0,0,1,.153.6,1.159,1.159,0,0,1-.14.55.479.479,0,0,1-.458.264Z" transform="translate(-287.057 -545.958)" fill="#1f62ac"/>
                <path id="Path_24" data-name="Path 24" d="M333.972,556.588a.981.981,0,0,1-.6-.175.507.507,0,0,1-.223-.407V546.54a.507.507,0,0,1,.223-.407.981.981,0,0,1,.6-.175h2.574a4.452,4.452,0,0,1,1.744.328,2.637,2.637,0,0,1,1.228,1.063,3.629,3.629,0,0,1,.458,1.941v3.968a3.628,3.628,0,0,1-.458,1.941,2.636,2.636,0,0,1-1.228,1.063,4.448,4.448,0,0,1-1.744.328Zm1.063-1.658h1.511a1.512,1.512,0,0,0,1.133-.417,1.724,1.724,0,0,0,.407-1.256v-3.968a1.739,1.739,0,0,0-.407-1.26,1.5,1.5,0,0,0-1.12-.414h-1.524Z" transform="translate(-281.971 -545.958)" fill="#1f62ac"/>
                <path id="Path_25" data-name="Path 25" d="M337.36,556.588a.974.974,0,0,1-.6-.175.51.51,0,0,1-.226-.407v-9.45a.49.49,0,0,1,.264-.446,1.1,1.1,0,0,1,.566-.153h2.819a4.6,4.6,0,0,1,1.413.213,2.15,2.15,0,0,1,1.088.76,2.564,2.564,0,0,1,.423,1.588,2.95,2.95,0,0,1-.334,1.473,1.9,1.9,0,0,1-.9.837,2.52,2.52,0,0,1,.786.442,1.936,1.936,0,0,1,.525.741,3.2,3.2,0,0,1,.188,1.187v.305a3.65,3.65,0,0,1-.385,1.81,2.288,2.288,0,0,1-1.047.974,3.58,3.58,0,0,1-1.476.3Zm1.047-6.5h1.642a1.075,1.075,0,0,0,.881-.35,1.388,1.388,0,0,0,.283-.9,1.4,1.4,0,0,0-.146-.662,1,1,0,0,0-.407-.414,1.246,1.246,0,0,0-.624-.147h-1.629Zm0,4.843h1.642a1.417,1.417,0,0,0,1.047-.379,1.653,1.653,0,0,0,.379-1.205v-.236a1.573,1.573,0,0,0-.379-1.2,1.512,1.512,0,0,0-1.047-.34h-1.642Z" transform="translate(-274.586 -545.958)" fill="#1f62ac"/>
                <path id="Path_26" data-name="Path 26" d="M342.772,556.588a1.4,1.4,0,0,1-.649-.153.482.482,0,0,1-.3-.445v-3.662a.433.433,0,0,0-.044-.191l-3.01-5.205a.306.306,0,0,1-.035-.108l-.01-.079a.52.52,0,0,1,.2-.407,1.623,1.623,0,0,1,.5-.277,1.686,1.686,0,0,1,.55-.1.548.548,0,0,1,.35.1.957.957,0,0,1,.216.284l2.227,4.2,2.208-4.2a1.163,1.163,0,0,1,.232-.284.548.548,0,0,1,.35-.1,1.622,1.622,0,0,1,.544.1,1.745,1.745,0,0,1,.5.277.518.518,0,0,1,.21.407l-.01.079a.3.3,0,0,1-.035.108l-3.01,5.205a.43.43,0,0,0-.044.191v3.662a.482.482,0,0,1-.3.445A1.4,1.4,0,0,1,342.772,556.588Z" transform="translate(-269.791 -545.958)" fill="#1f62ac"/>
            </g>
            <g id="Group_14" data-name="Group 14" transform="translate(446.669 655.383)">
                <path id="Path_27" data-name="Path 27" d="M373.591,542.2a2.808,2.808,0,0,0-.035-.283c-.054.236-.121.544-.162.7.067-.14.2-.394.2-.417" transform="translate(-322.946 -541.912)" fill="#1f62ac"/>
                <path id="Path_28" data-name="Path 28" d="M358.171,564.532a.914.914,0,0,1-.436-.1.324.324,0,0,1-.2-.3v-6.3a.334.334,0,0,1,.175-.306.762.762,0,0,1,.379-.1h3.395a.324.324,0,0,1,.306.175.794.794,0,0,1,.092.369.765.765,0,0,1-.1.4.336.336,0,0,1-.3.166H358.8v1.944h1.489a.335.335,0,0,1,.3.15.606.606,0,0,1,.1.353.649.649,0,0,1-.093.331.325.325,0,0,1-.305.159H358.8v2.66a.321.321,0,0,1-.194.3.9.9,0,0,1-.436.1" transform="translate(-357.538 -508.07)" fill="#1f62ac"/>
                <path id="Path_29" data-name="Path 29" d="M360.836,562.954a2.069,2.069,0,0,1-1.04-.277,2.226,2.226,0,0,1-.767-.735,1.77,1.77,0,0,1-.293-.98v-.8a1.773,1.773,0,0,1,.283-.977,2.165,2.165,0,0,1,2.867-.732,2.152,2.152,0,0,1,.767.716,1.762,1.762,0,0,1,.293.993v.8a1.758,1.758,0,0,1-.293.97,2.272,2.272,0,0,1-.773.742,2.055,2.055,0,0,1-1.043.28m0-1.1a.767.767,0,0,0,.426-.124.968.968,0,0,0,.315-.337.892.892,0,0,0,.118-.43v-.8a.8.8,0,0,0-.118-.417,1.048,1.048,0,0,0-.309-.328.724.724,0,0,0-.433-.13.746.746,0,0,0-.426.127.916.916,0,0,0-.309.325.856.856,0,0,0-.111.423v.8a.932.932,0,0,0,.42.767.767.767,0,0,0,.426.124" transform="translate(-354.924 -506.404)" fill="#1f62ac"/>
                <path id="Path_30" data-name="Path 30" d="M360.923,562.865a.729.729,0,0,1-.439-.127.351.351,0,0,1-.175-.28v-3.821a.327.327,0,0,1,.175-.283.853.853,0,0,1,.439-.105.718.718,0,0,1,.4.105.324.324,0,0,1,.159.283v.4a1.675,1.675,0,0,1,.29-.407,1.59,1.59,0,0,1,.41-.315,1.029,1.029,0,0,1,.5-.127h.3a.405.405,0,0,1,.321.162.561.561,0,0,1,.137.382.577.577,0,0,1-.137.394.4.4,0,0,1-.321.162h-.3a.907.907,0,0,0-.528.178,1.382,1.382,0,0,0-.423.5,1.65,1.65,0,0,0-.166.764v1.731a.342.342,0,0,1-.185.28.783.783,0,0,1-.458.127" transform="translate(-351.493 -506.404)" fill="#1f62ac"/>
                <path id="Path_31" data-name="Path 31" d="M362.728,564.532a.909.909,0,0,1-.433-.1.332.332,0,0,1-.2-.305v-6.07a.57.57,0,0,1,.2-.49.748.748,0,0,1,.433-.14,1.523,1.523,0,0,1,.395.048.715.715,0,0,1,.3.194,2.241,2.241,0,0,1,.3.429l1.2,2.176L366.1,558.1a3.2,3.2,0,0,1,.309-.429.628.628,0,0,1,.3-.194,1.526,1.526,0,0,1,.388-.048.739.739,0,0,1,.439.14.57.57,0,0,1,.194.49v6.07a.33.33,0,0,1-.2.305.9.9,0,0,1-.433.1.917.917,0,0,1-.433-.1.332.332,0,0,1-.2-.305v-4.171l-1.13,2.021a.557.557,0,0,1-.2.2.453.453,0,0,1-.452.006.522.522,0,0,1-.2-.207l-1.12-2.09v4.241a.329.329,0,0,1-.194.305.908.908,0,0,1-.439.1" transform="translate(-347.59 -508.07)" fill="#1f62ac"/>
                <path id="Path_32" data-name="Path 32" d="M366.5,562.954a2.822,2.822,0,0,1-1.219-.248,1.984,1.984,0,0,1-.834-.7,1.818,1.818,0,0,1-.3-1.044v-.827a1.774,1.774,0,0,1,.286-.97,2.2,2.2,0,0,1,.77-.71,2.176,2.176,0,0,1,1.075-.267,2.136,2.136,0,0,1,1,.236,1.977,1.977,0,0,1,.732.639,1.618,1.618,0,0,1,.283.954,1.024,1.024,0,0,1-.134.6.575.575,0,0,1-.347.223,2.159,2.159,0,0,1-.433.045H365.4v.146a.83.83,0,0,0,.315.674,1.458,1.458,0,0,0,1.355.159c.143-.061.264-.124.372-.182a.574.574,0,0,1,.289-.092.365.365,0,0,1,.255.1.787.787,0,0,1,.165.226.6.6,0,0,1,.057.229.523.523,0,0,1-.21.357,1.64,1.64,0,0,1-.592.318,2.8,2.8,0,0,1-.91.133m-1.1-2.809h1.419a.373.373,0,0,0,.229-.054.281.281,0,0,0,.063-.21.707.707,0,0,0-.121-.4.869.869,0,0,0-.315-.274.922.922,0,0,0-.42-.1.993.993,0,0,0-.42.1.823.823,0,0,0-.318.261.71.71,0,0,0-.118.4Z" transform="translate(-343.124 -506.404)" fill="#1f62ac"/>
                <path id="Path_33" data-name="Path 33" d="M366.306,562.865a.739.739,0,0,1-.449-.127.343.343,0,0,1-.175-.28v-3.821a.321.321,0,0,1,.175-.283.866.866,0,0,1,.449-.105.708.708,0,0,1,.395.105.331.331,0,0,1,.159.283v.29a1.474,1.474,0,0,1,.481-.509,1.43,1.43,0,0,1,.821-.229,1.41,1.41,0,0,1,.837.267,1.887,1.887,0,0,1,.608.716,2.109,2.109,0,0,1,.229.989v2.3a.332.332,0,0,1-.191.305.959.959,0,0,1-.859,0,.334.334,0,0,1-.2-.305v-2.3a.813.813,0,0,0-.111-.417.972.972,0,0,0-.309-.324.725.725,0,0,0-.426-.13.734.734,0,0,0-.379.105.855.855,0,0,0-.3.3.888.888,0,0,0-.115.464v2.3a.341.341,0,0,1-.185.28.766.766,0,0,1-.449.127" transform="translate(-339.771 -506.404)" fill="#1f62ac"/>
                <path id="Path_34" data-name="Path 34" d="M367.875,560.587a.627.627,0,0,1-.471-.2.661.661,0,0,1,0-.929.636.636,0,0,1,.471-.2.63.63,0,0,1,.458.2.646.646,0,0,1,0,.929.62.62,0,0,1-.458.2" transform="translate(-336.43 -504.065)" fill="#1f62ac"/>
                <path id="Path_35" data-name="Path 35" d="M369.139,564.532a.9.9,0,0,1-.432-.1.322.322,0,0,1-.2-.3v-6.3a.334.334,0,0,1,.175-.306.76.76,0,0,1,.378-.1h3.395a.32.32,0,0,1,.305.175.8.8,0,0,1-.006.77.337.337,0,0,1-.3.166h-2.685v1.944h1.492a.334.334,0,0,1,.293.15.606.606,0,0,1,.1.353.68.68,0,0,1-.089.331.332.332,0,0,1-.305.159h-1.492v2.66a.318.318,0,0,1-.191.3.917.917,0,0,1-.439.1" transform="translate(-333.61 -508.07)" fill="#1f62ac"/>
                <path id="Path_36" data-name="Path 36" d="M371.8,562.954a2.078,2.078,0,0,1-1.041-.277,2.257,2.257,0,0,1-.767-.735,1.8,1.8,0,0,1-.293-.98v-.8a1.8,1.8,0,0,1,.283-.977,2.166,2.166,0,0,1,2.867-.732,2.161,2.161,0,0,1,.77.716,1.784,1.784,0,0,1,.289.993v.8a1.78,1.78,0,0,1-.289.97,2.3,2.3,0,0,1-.773.742,2.066,2.066,0,0,1-1.047.28m0-1.1a.777.777,0,0,0,.429-.124.991.991,0,0,0,.312-.337.858.858,0,0,0,.118-.43v-.8a.771.771,0,0,0-.118-.417,1.076,1.076,0,0,0-.305-.328.734.734,0,0,0-.436-.13.754.754,0,0,0-.426.127.906.906,0,0,0-.305.325.823.823,0,0,0-.111.423v.8a.884.884,0,0,0,.111.43.916.916,0,0,0,.305.337.775.775,0,0,0,.426.124" transform="translate(-330.996 -506.404)" fill="#1f62ac"/>
                <path id="Path_37" data-name="Path 37" d="M371.892,562.865a.722.722,0,0,1-.439-.127.351.351,0,0,1-.175-.28v-3.821a.328.328,0,0,1,.175-.283.845.845,0,0,1,.439-.105.714.714,0,0,1,.4.105.327.327,0,0,1,.162.283v.4a1.58,1.58,0,0,1,.286-.407,1.6,1.6,0,0,1,.414-.315,1.01,1.01,0,0,1,.5-.127h.3a.416.416,0,0,1,.325.162.576.576,0,0,1,.134.382.592.592,0,0,1-.134.394.415.415,0,0,1-.325.162h-.3a.91.91,0,0,0-.531.178,1.417,1.417,0,0,0-.423.5,1.65,1.65,0,0,0-.165.764v1.731a.341.341,0,0,1-.185.28.773.773,0,0,1-.455.127" transform="translate(-327.562 -506.404)" fill="#1f62ac"/>
                <path id="Path_38" data-name="Path 38" d="M373.709,564.532a.921.921,0,0,1-.442-.1.33.33,0,0,1-.2-.305v-6.3a.316.316,0,0,1,.2-.309,1.046,1.046,0,0,1,.442-.092,1,1,0,0,1,.426.092.315.315,0,0,1,.194.309v2.526h2.189v-2.526a.318.318,0,0,1,.2-.309,1.077,1.077,0,0,1,.442-.092,1.007,1.007,0,0,1,.429.092.315.315,0,0,1,.194.309v6.3a.329.329,0,0,1-.194.305.887.887,0,0,1-.429.1.947.947,0,0,1-.442-.1.332.332,0,0,1-.2-.305v-2.781h-2.189v2.781a.329.329,0,0,1-.194.305.876.876,0,0,1-.426.1" transform="translate(-323.661 -508.07)" fill="#1f62ac"/>
                <path id="Path_39" data-name="Path 39" d="M377.183,562.954a2.823,2.823,0,0,1-1.219-.248,1.983,1.983,0,0,1-.834-.7,1.843,1.843,0,0,1-.3-1.044v-.827a1.773,1.773,0,0,1,.286-.97,2.2,2.2,0,0,1,.77-.71,2.166,2.166,0,0,1,1.075-.267,2.136,2.136,0,0,1,1,.236,2.011,2.011,0,0,1,.735.639,1.638,1.638,0,0,1,.28.954,1.025,1.025,0,0,1-.134.6.567.567,0,0,1-.347.223,2.136,2.136,0,0,1-.433.045h-1.972v.146a.83.83,0,0,0,.315.674,1.459,1.459,0,0,0,1.356.159,4,4,0,0,0,.372-.182.575.575,0,0,1,.29-.092.365.365,0,0,1,.255.1.685.685,0,0,1,.165.226.6.6,0,0,1,.057.229.524.524,0,0,1-.21.357,1.641,1.641,0,0,1-.592.318,2.8,2.8,0,0,1-.91.133m-1.1-2.809H377.5a.365.365,0,0,0,.229-.054.28.28,0,0,0,.064-.21.686.686,0,0,0-.124-.4.85.85,0,0,0-.309-.274.945.945,0,0,0-.423-.1.959.959,0,0,0-.417.1.813.813,0,0,0-.321.261.71.71,0,0,0-.118.4Z" transform="translate(-319.815 -506.404)" fill="#1f62ac"/>
                <path id="Path_40" data-name="Path 40" d="M377.544,562.949a1.336,1.336,0,0,1-.888-.315,1.2,1.2,0,0,1-.375-.977,1.235,1.235,0,0,1,.286-.865,1.594,1.594,0,0,1,.8-.439,5.005,5.005,0,0,1,1.18-.124h.4V560.1a1.126,1.126,0,0,0-.08-.417.794.794,0,0,0-.264-.341.821.821,0,0,0-.509-.137,1.747,1.747,0,0,0-.57.073,1.336,1.336,0,0,0-.309.15.374.374,0,0,1-.232.08.347.347,0,0,1-.318-.207.9.9,0,0,1-.111-.417.449.449,0,0,1,.251-.362,1.9,1.9,0,0,1,.608-.248,2.831,2.831,0,0,1,.7-.086,2.356,2.356,0,0,1,1.215.27,1.621,1.621,0,0,1,.668.7,2.062,2.062,0,0,1,.207.923v2.374a.342.342,0,0,1-.172.289.766.766,0,0,1-.439.118.644.644,0,0,1-.4-.118.345.345,0,0,1-.162-.289v-.274a2.971,2.971,0,0,1-.617.538,1.538,1.538,0,0,1-.862.229m.506-.932a.755.755,0,0,0,.41-.134,1.26,1.26,0,0,0,.344-.353.784.784,0,0,0,.14-.446v-.2H378.8a4.792,4.792,0,0,0-.614.038,1.008,1.008,0,0,0-.471.169.466.466,0,0,0-.178.4.491.491,0,0,0,.15.4.547.547,0,0,0,.363.124" transform="translate(-316.647 -506.401)" fill="#1f62ac"/>
                <path id="Path_41" data-name="Path 41" d="M378.457,564.672a.741.741,0,0,1-.449-.127.352.352,0,0,1-.175-.28v-6.513a.324.324,0,0,1,.175-.283.836.836,0,0,1,.449-.108.867.867,0,0,1,.449.108.316.316,0,0,1,.184.283v6.513a.342.342,0,0,1-.184.28.768.768,0,0,1-.449.127" transform="translate(-313.261 -508.21)" fill="#1f62ac"/>
                <path id="Path_42" data-name="Path 42" d="M380.353,564.24a2.071,2.071,0,0,1-1.336-.379,1.468,1.468,0,0,1-.461-1.206V557.95a.319.319,0,0,1,.2-.283.875.875,0,0,1,.417-.108.894.894,0,0,1,.436.108.323.323,0,0,1,.2.283v1.673h1.145a.265.265,0,0,1,.242.14.67.67,0,0,1,0,.633.27.27,0,0,1-.242.14h-1.145v2.119a.543.543,0,0,0,.121.407.6.6,0,0,0,.423.118h.379a.48.48,0,0,1,.4.165.572.572,0,0,1,.134.36.591.591,0,0,1-.134.369.48.48,0,0,1-.4.166Z" transform="translate(-311.686 -507.778)" fill="#1f62ac"/>
                <path id="Path_43" data-name="Path 43" d="M380.239,564.672a.741.741,0,0,1-.448-.127.352.352,0,0,1-.175-.28v-6.513a.324.324,0,0,1,.175-.283.835.835,0,0,1,.448-.108.867.867,0,0,1,.449.108.319.319,0,0,1,.182.283v2.981a1.551,1.551,0,0,1,.458-.509,1.259,1.259,0,0,1,.767-.229,1.411,1.411,0,0,1,.837.267,1.917,1.917,0,0,1,.608.716,2.146,2.146,0,0,1,.229.989v2.3a.329.329,0,0,1-.194.305.95.95,0,0,1-.856,0,.329.329,0,0,1-.2-.305v-2.3a.849.849,0,0,0-.115-.417,1.032,1.032,0,0,0-.309-.324.71.71,0,0,0-.423-.131.725.725,0,0,0-.379.105.858.858,0,0,0-.3.3.89.89,0,0,0-.117.464v2.3a.345.345,0,0,1-.182.28.768.768,0,0,1-.449.127" transform="translate(-309.374 -508.21)" fill="#1f62ac"/>
                <path id="Path_44" data-name="Path 44" d="M381.808,560.587a.618.618,0,0,1-.471-.2.661.661,0,0,1,0-.929.646.646,0,0,1,.929,0,.653.653,0,0,1,0,.929.62.62,0,0,1-.458.2" transform="translate(-306.034 -504.065)" fill="#1f62ac"/>
            </g>
            <line id="Line_1" data-name="Line 1" x2="205.151" transform="translate(317.287 633.017)" fill="none" stroke="#2162aa" stroke-linecap="round" stroke-miterlimit="10" stroke-width="1"/>
            <g id="Group_62" data-name="Group 62" transform="translate(406.332 640.732)">
                <g id="Group_15" data-name="Group 15" transform="translate(39.484)">
                    <path id="Path_45" data-name="Path 45" d="M365.186,541.265a3.958,3.958,0,1,0-6.271,3.21l2.313,1.941h0l2.313-1.941A3.949,3.949,0,0,0,365.186,541.265Z" transform="translate(-357.27 -537.307)" fill="#5f888a"/>
                </g>
                <g id="Group_16" data-name="Group 16" transform="translate(51.307 12.021)">
                    <circle id="Ellipse_1" data-name="Ellipse 1" cx="4.042" cy="4.042" r="4.042" fill="#7e145c"/>
                </g>
                <g id="Group_17" data-name="Group 17" transform="translate(74.006 38.844)">
                    <circle id="Ellipse_2" data-name="Ellipse 2" cx="4.087" cy="4.087" r="4.087" fill="#7e145c"/>
                </g>
                <g id="Group_18" data-name="Group 18" transform="translate(94.307 16.691)">
                    <path id="Path_46" data-name="Path 46" d="M374.533,542.553l-.032.077C374.5,542.655,374.514,542.62,374.533,542.553Z" transform="translate(-374.501 -542.553)" fill="none"/>
                </g>
                <g id="Group_19" data-name="Group 19" transform="translate(94.543 27.448)">
                    <path id="Path_47" data-name="Path 47" d="M374.575,549.5h3l-3-3.57Z" transform="translate(-374.575 -545.934)" fill="none"/>
                </g>
                <g id="Group_20" data-name="Group 20" transform="translate(86.856 12.186)">
                    <path id="Path_48" data-name="Path 48" d="M374.58,541.137a3.66,3.66,0,0,0-1.448.744,3.705,3.705,0,0,0-.974,1.273A4.271,4.271,0,0,1,374.58,541.137Z" transform="translate(-372.159 -541.137)" fill="#0d0d32"/>
                </g>
                <g id="Group_21" data-name="Group 21" transform="translate(73.948 12.023)">
                    <path id="Path_49" data-name="Path 49" d="M372.292,541.086c-2.278,0-4.13,2.1-4.187,4.719h0v14.852l6.892,8.209,0,0q.1.129.2.267l.045.061c.06.092.121.181.178.274l.01.016c.054.089.1.181.153.274l.028.054c.048.1.1.194.14.293l0,.01c.045.1.083.2.121.305l.01.026a4.55,4.55,0,0,1-.1,3.471,5.35,5.35,0,0,0,.7-2.675V545.8h0C376.422,543.186,374.57,541.086,372.292,541.086Z" transform="translate(-368.102 -541.086)" fill="#fff"/>
                </g>
                <g id="Group_22" data-name="Group 22" transform="translate(39.462 9.109)">
                    <path id="Path_50" data-name="Path 50" d="M363.219,541.834l0,0-1.979-1.661,0,0-1.976,1.658v0a4.737,4.737,0,0,0-2,3.872h0v34.48c0,2.539,1.782,4.6,3.977,4.6s3.98-2.059,3.98-4.6v-34.48h0A4.741,4.741,0,0,0,363.219,541.834Z" transform="translate(-357.263 -540.17)" fill="#ffe200"/>
                </g>
                <g id="Group_23" data-name="Group 23" transform="translate(91.657 12.262)">
                    <path id="Path_51" data-name="Path 51" d="M376.054,543.474l.006.01a5.377,5.377,0,0,1,.248.646l.013.041q.048.157.086.324l.01.042c.022.1.041.2.06.308l.006.045.01.083c.041-.172.07-.293.073-.251l-.013.919v10.706l2.994,3.57h8.635v0a5.1,5.1,0,0,1,3.738,1.661,4.472,4.472,0,0,0-.468-.534l-9.927-11.829c-.083-.1-.172-.2-.261-.29l-5.107-6.083a5.332,5.332,0,0,0-2.491-1.683A4.423,4.423,0,0,1,376.054,543.474Z" transform="translate(-373.668 -541.161)" fill="#fff"/>
                </g>
                <g id="Group_24" data-name="Group 24" transform="translate(104.587 33.035)">
                    <path id="Path_52" data-name="Path 52" d="M389.011,554.461v0l-5.679-6.767a3.76,3.76,0,0,1,.7,2.173c0,2.278-2.1,4.13-4.718,4.187h-1.585l.586.7,4.276,5.1h0c1.724,1.966,4.493,2.386,6.239.923S390.65,556.5,389.011,554.461Z" transform="translate(-377.732 -547.69)" fill="#fff"/>
                </g>
                <g id="Group_25" data-name="Group 25" transform="translate(51.136 14.203)">
                    <path id="Path_53" data-name="Path 53" d="M362.291,546.633l-.045-.063c-.067-.089-.127-.178-.188-.271l0-.006q-.086-.138-.162-.277l-.035-.063c-.051-.1-.1-.191-.143-.289l0,0c-.045-.1-.086-.2-.124-.3l-.019-.051a4.344,4.344,0,0,1-.191-.62l-.01-.032a4.585,4.585,0,0,1-.105-.649l0-.006a4.336,4.336,0,0,1,.363-2.234,5.346,5.346,0,0,0-.687,2.539h0v25.437c0,2.672,1.877,4.839,4.19,4.839s4.19-2.167,4.19-4.839V555.017L362.5,546.9C362.428,546.811,362.358,546.722,362.291,546.633Z" transform="translate(-360.932 -541.771)" fill="#fff"/>
                </g>
                <g id="Group_26" data-name="Group 26" transform="translate(54.25 12.023)">
                    <path id="Path_54" data-name="Path 54" d="M361.994,541.226l.06-.01c.067-.016.137-.029.2-.041l.067-.01c.076-.013.152-.022.229-.029l.029,0a4.493,4.493,0,0,1,1.708.191,3.728,3.728,0,0,0-1.3-.239,3.662,3.662,0,0,0-1.075.162l.067-.016Z" transform="translate(-361.911 -541.086)" fill="#7e145c"/>
                </g>
                <g id="Group_27" data-name="Group 27" transform="translate(56.63 12.262)">
                    <path id="Path_55" data-name="Path 55" d="M380.524,573.468l0-.01-.07-.149-.016-.032-.06-.146-.01-.019c-.035-.089-.07-.181-.1-.276l-.019-.061-.035-.111-.029-.1-.029-.1-.025-.111-.022-.1-.032-.162-.013-.073a1.765,1.765,0,0,1-.029-.185l-.009-.079-.019-.146L380,571.53l-.009-.153,0-.073c0-.073-.007-.147-.007-.22V560.493h0l-9.459-11.276c-.086-.1-.172-.2-.261-.29l-5.107-6.083a5.332,5.332,0,0,0-2.491-1.683,4.433,4.433,0,0,1,2.386,2.313l0,.01a5.387,5.387,0,0,1,.248.646l.013.041c.032.1.06.213.089.324l.006.042c.026.1.045.2.06.308l.01.045c.016.108.032.22.042.331l.006.073c.01.114.016.229.019.347h0v10.706l9.538,11.368v0c.057.067.118.131.178.194l5.189,6.182h0a5.328,5.328,0,0,0,2.383,1.578A4.413,4.413,0,0,1,380.524,573.468Z" transform="translate(-362.659 -541.161)" fill="#fff"/>
                </g>
                <g id="Group_28" data-name="Group 28" transform="translate(51.826 12.186)">
                    <path id="Path_56" data-name="Path 56" d="M363.574,541.137a3.673,3.673,0,0,0-2.425,2.017A4.279,4.279,0,0,1,363.574,541.137Z" transform="translate(-361.149 -541.137)" fill="#7e145c"/>
                </g>
                <g id="Group_29" data-name="Group 29" transform="translate(80.836 39.803)">
                    <path id="Path_57" data-name="Path 57" d="M370.468,550.088q-.1-.138-.2-.267l0,0,0,0Q370.372,549.949,370.468,550.088Z" transform="translate(-370.267 -549.817)" fill="#2162aa"/>
                </g>
                <g id="Group_30" data-name="Group 30" transform="translate(81.609 41.384)">
                    <path id="Path_58" data-name="Path 58" d="M370.625,550.314a4.534,4.534,0,0,1-.115,3.5l.019-.029A4.551,4.551,0,0,0,370.625,550.314Z" transform="translate(-370.51 -550.314)" fill="#2162aa"/>
                </g>
                <g id="Group_31" data-name="Group 31" transform="translate(51.442 12.17)">
                    <path id="Path_59" data-name="Path 59" d="M361.049,545.4a4.312,4.312,0,0,1,.353-2.208,4.266,4.266,0,0,1,2.5-2.059l-.067.016a4.279,4.279,0,0,0-2.425,2.017A4.338,4.338,0,0,0,361.049,545.4Z" transform="translate(-361.028 -541.132)" fill="#2162aa"/>
                </g>
                <g id="Group_32" data-name="Group 32" transform="translate(54.922 12.056)">
                    <path id="Path_60" data-name="Path 60" d="M362.122,541.112a4.586,4.586,0,0,1,1.734.2,4.441,4.441,0,0,1,2.361,2.3,4.434,4.434,0,0,0-2.386-2.313A4.5,4.5,0,0,0,362.122,541.112Z" transform="translate(-362.122 -541.096)" fill="#2162aa"/>
                </g>
                <g id="Group_33" data-name="Group 33" transform="translate(52.494 19.064)">
                    <path id="Path_61" data-name="Path 61" d="M361.359,543.3c.067.089.137.178.207.264l6.815,8.12-6.815-8.12C361.5,543.477,361.426,543.388,361.359,543.3Z" transform="translate(-361.359 -543.299)" fill="#2162aa"/>
                </g>
                <g id="Group_34" data-name="Group 34" transform="translate(51.442 12.057)">
                    <path id="Path_62" data-name="Path 62" d="M369.1,545.781c0-.118-.01-.232-.019-.347l-.006-.073c-.01-.111-.026-.223-.042-.331l-.01-.044c-.016-.105-.035-.207-.06-.309l-.006-.042c-.029-.111-.057-.219-.089-.325l-.013-.041a5.424,5.424,0,0,0-.248-.646l0-.01a4.443,4.443,0,0,0-2.361-2.3,4.594,4.594,0,0,0-1.734-.2l-.029,0q-.115.01-.229.029l-.067.009c-.067.013-.137.026-.2.042l-.06.01-.016.006a4.264,4.264,0,0,0-2.5,2.059,4.312,4.312,0,0,0-.353,2.208l0,.006a4.583,4.583,0,0,0,.1.649l.009.032a4.368,4.368,0,0,0,.191.621l.019.051c.038.1.079.2.124.3l0,0c.044.1.092.194.143.29l.035.063q.076.139.162.277l0,.006c.06.092.121.181.188.271l.045.063c.067.089.137.178.207.264l6.815,8.119V545.781Z" transform="translate(-361.028 -541.097)" fill="#ffe200"/>
                </g>
                <g id="Group_35" data-name="Group 35" transform="translate(73.949 31.592)">
                    <path id="Path_63" data-name="Path 63" d="M374.993,555.448l-6.89-8.211h0Z" transform="translate(-368.102 -547.237)" fill="#7e145c"/>
                </g>
                <g id="Group_36" data-name="Group 36" transform="translate(73.948 31.594)">
                    <path id="Path_64" data-name="Path 64" d="M368.1,557.823v.006c0,.073,0,.146.006.22l0,.073.009.153.006.083.019.146.01.079a1.718,1.718,0,0,0,.029.184l.013.073.032.162.022.1.026.111.029.1.029.1.035.111.019.06c.032.1.067.188.1.277l.01.019.06.146.016.032.07.149,0,.009a3.962,3.962,0,0,0,4.636,2.307l.013,0h0a4.081,4.081,0,0,0,1.96-1.282l.022-.025.092-.111.045-.057.07-.092.057-.08.051-.076.067-.1.041-.07.054-.086,0-.01a4.535,4.535,0,0,0,.115-3.5l-.01-.026c-.038-.1-.076-.2-.121-.305l0-.01c-.045-.1-.092-.2-.14-.293l-.028-.054c-.048-.093-.1-.185-.153-.274l-.01-.016c-.057-.092-.118-.181-.178-.273l-.045-.061q-.1-.138-.2-.267l0,0-6.892-8.209Z" transform="translate(-368.102 -547.237)" fill="#ffe200"/>
                </g>
                <g id="Group_37" data-name="Group 37" transform="translate(89.277 12.023)">
                    <path id="Path_65" data-name="Path 65" d="M373.006,541.226l.06-.01c.067-.016.134-.029.2-.041l.07-.01q.115-.019.229-.029l.029,0a4.484,4.484,0,0,1,1.705.191,3.717,3.717,0,0,0-1.3-.239,3.662,3.662,0,0,0-1.075.162l.07-.016Z" transform="translate(-372.92 -541.086)" fill="#2162aa"/>
                </g>
                <g id="Group_38" data-name="Group 38" transform="translate(89.952 12.056)">
                    <path id="Path_66" data-name="Path 66" d="M373.132,541.112a4.563,4.563,0,0,1,1.731.2,4.419,4.419,0,0,1,2.361,2.3,4.422,4.422,0,0,0-2.386-2.313A4.491,4.491,0,0,0,373.132,541.112Z" transform="translate(-373.132 -541.096)" fill="#2162aa"/>
                </g>
                <g id="Group_39" data-name="Group 39" transform="translate(86.471 12.17)">
                    <path id="Path_67" data-name="Path 67" d="M372.06,545.4a4.311,4.311,0,0,1,.353-2.208,4.265,4.265,0,0,1,2.5-2.059l-.07.016a3.874,3.874,0,0,0-2.784,4.251Z" transform="translate(-372.038 -541.132)" fill="#2162aa"/>
                </g>
                <g id="Group_40" data-name="Group 40" transform="translate(87.524 19.064)">
                    <path id="Path_68" data-name="Path 68" d="M372.369,543.3c.067.089.134.178.207.264l6.812,8.12-6.812-8.12C372.5,543.477,372.436,543.388,372.369,543.3Z" transform="translate(-372.369 -543.299)" fill="#2162aa"/>
                </g>
                <g id="Group_41" data-name="Group 41" transform="translate(86.493 16.443)">
                    <path id="Path_69" data-name="Path 69" d="M372.153,543.124a4.589,4.589,0,0,1-.108-.649A4.589,4.589,0,0,0,372.153,543.124Z" transform="translate(-372.045 -542.475)" fill="#2162aa"/>
                </g>
                <g id="Group_42" data-name="Group 42" transform="translate(86.166 14.203)">
                    <path id="Path_70" data-name="Path 70" d="M375.976,558.643l.045-.006.076-.01.146-.016.083-.006.153-.01.073,0c.073,0,.15-.006.223-.006h3.544v-3.57l-6.812-8.12c-.073-.086-.14-.175-.207-.264l-.048-.063c-.064-.089-.127-.178-.185-.271l-.006-.006c-.057-.092-.108-.184-.162-.277l-.032-.063c-.051-.1-.191-.325-.235-.423v0c-.045-.1,0-.063-.038-.162l-.019-.051a5.344,5.344,0,0,1-.191-.62l-.006-.032a4.578,4.578,0,0,1-.108-.649V544a4.276,4.276,0,0,1,.363-2.234,5.347,5.347,0,0,0-.687,2.539h0v18.422A4.088,4.088,0,0,1,375.976,558.643Z" transform="translate(-371.942 -541.771)" fill="#fff"/>
                </g>
                <g id="Group_43" data-name="Group 43" transform="translate(86.166 35.164)">
                    <path id="Path_71" data-name="Path 71" d="M375.207,552.361a4.088,4.088,0,0,1-3.264-4v7.016c0,2.672,1.874,4.839,4.187,4.839a4.5,4.5,0,0,0,4.181-4.505q.01-.167.01-.334v-2.784h-3.538A5.513,5.513,0,0,1,375.207,552.361Z" transform="translate(-371.942 -548.359)" fill="#fff"/>
                </g>
                <g id="Group_44" data-name="Group 44" transform="translate(94.339 16.074)">
                    <path id="Path_72" data-name="Path 72" d="M374.686,542.607c-.006-.083-.019-.166-.032-.248-.048.207-.108.481-.143.617C374.568,542.855,374.689,542.627,374.686,542.607Z" transform="translate(-374.511 -542.359)" fill="#7e145c"/>
                </g>
                <g id="Group_45" data-name="Group 45" transform="translate(86.472 12.057)">
                    <path id="Path_73" data-name="Path 73" d="M380.106,545.781c0-.118-.01-.232-.019-.347l-.006-.073c0,.019-.118.248-.175.369-.019.067-.032.1-.032.076l.032-.076c.035-.137.1-.41.143-.617l-.009-.083-.007-.044c-.019-.105-.038-.207-.06-.309l-.01-.042q-.038-.167-.086-.325l-.013-.041a5.4,5.4,0,0,0-.248-.646l-.006-.01a4.421,4.421,0,0,0-2.361-2.3,4.569,4.569,0,0,0-1.731-.2l-.029,0q-.115.01-.229.029l-.07.009c-.067.013-.134.026-.2.042l-.06.01-.016.006a4.264,4.264,0,0,0-2.5,2.059,4.311,4.311,0,0,0-.353,2.208v.006a4.585,4.585,0,0,0,.108.649l.006.032a5.367,5.367,0,0,0,.191.621l.019.051c.038.1.079.2.124.3l0,0c.044.1.1.194.146.29l.032.063c.054.093.1.185.162.277l.006.006c.057.092.121.181.185.271l.048.063c.067.089.134.178.207.264l6.812,8.119V545.781Z" transform="translate(-372.038 -541.097)" fill="#ffe200"/>
                </g>
                <g id="Group_46" data-name="Group 46" transform="translate(94.482 15.814)">
                    <path id="Path_74" data-name="Path 74" d="M374.594,542.858c.01.114.016.229.019.347h0l.013-.919c0-.042-.032.079-.073.251.013.083.025.166.032.248Z" transform="translate(-374.556 -542.278)" fill="#7e145c"/>
                </g>
                <g id="Group_47" data-name="Group 47" transform="translate(86.818 17.795)">
                    <path id="Path_75" data-name="Path 75" d="M372.271,543.2c-.045-.1-.086-.2-.124-.3.038.1-.006.067.038.162v0c.045.1.185.328.235.423-.051-.1-.1-.191-.146-.29Z" transform="translate(-372.147 -542.9)" fill="#7e145c"/>
                </g>
                <g id="Group_48" data-name="Group 48" transform="translate(94.543 31.018)">
                    <path id="Path_76" data-name="Path 76" d="M384.117,554.851l0,0-4.979-5.934-1.565-1.864h-2.994v8.377h10.044l-.328-.388C384.235,554.982,384.174,554.918,384.117,554.851Z" transform="translate(-374.575 -547.056)" fill="#fff"/>
                </g>
                <g id="Group_49" data-name="Group 49" transform="translate(109.91 32.682)">
                    <path id="Path_77" data-name="Path 77" d="M379.682,547.932q-.129-.182-.277-.353c.038.051.073.1.111.153Z" transform="translate(-379.405 -547.579)" fill="#7e145c"/>
                </g>
                <g id="Group_50" data-name="Group 50" transform="translate(97.537 31.018)">
                    <path id="Path_78" data-name="Path 78" d="M384.151,555.433c2.615-.057,4.718-1.909,4.718-4.187a3.76,3.76,0,0,0-.7-2.173l-.165-.2c-.038-.051-.073-.1-.111-.153a5.1,5.1,0,0,0-3.738-1.661v0h-8.635l1.565,1.864,4.979,5.934,0,0c.057.067.118.131.175.194l.328.388Z" transform="translate(-375.516 -547.056)" fill="#ffe200"/>
                </g>
                <g id="Group_51" data-name="Group 51" transform="translate(86.166 31.018)">
                    <path id="Path_79" data-name="Path 79" d="M380.32,547.056h-3.544c-.073,0-.15,0-.223.006l-.073,0-.153.01-.083.006-.146.016-.076.01-.045.006a4.088,4.088,0,0,0-.77,8.091,5.513,5.513,0,0,0,1.575.229h3.538v-8.377Z" transform="translate(-371.942 -547.056)" fill="#fff"/>
                </g>
                <g id="Group_52" data-name="Group 52" transform="translate(86.146 11.728)">
                    <circle id="Ellipse_3" data-name="Ellipse 3" cx="4.204" cy="4.204" r="4.204" fill="#ffe200"/>
                </g>
                <g id="Group_61" data-name="Group 61" transform="translate(0 11.661)">
                    <g id="Group_53" data-name="Group 53" transform="translate(27.47 4.941)">
                        <path id="Path_80" data-name="Path 80" d="M361.372,544.211l-.083.124-.022.029-.08.1-.038.048-.07.083-.064.067-.054.057c-.041.042-.083.08-.127.118v0h0l-1.247,1.047-6.1,5.113v16.964c0,2.685,1.883,4.858,4.206,4.858s4.206-2.173,4.206-4.858v-25.44a4.06,4.06,0,0,1-.528,1.677Z" transform="translate(-353.494 -542.525)" fill="#fff"/>
                    </g>
                    <g id="Group_54" data-name="Group 54" transform="translate(17.941 0.948)">
                        <path id="Path_81" data-name="Path 81" d="M360.079,553.924v-8.877h0c0-.079,0-.162.01-.242l.006-.083.013-.156.013-.1.019-.137.016-.108.022-.124.022-.111.026-.114.029-.118.025-.1.035-.124.029-.086.044-.134.022-.067.057-.15.013-.032c.3-.738,1.139-1.384,1.375-1.792L350.5,550.6l3.29,2.838a4.058,4.058,0,0,1,.84,1.225c.063.153.318,1.442.318,1.537a4.325,4.325,0,0,1-.324,1.721c-.041.1-.089.191-.137.283a5.16,5.16,0,0,1-.611.91c-.016.019-.4.729-.414.748l6.618-5.937Z" transform="translate(-350.499 -541.27)" fill="#fff"/>
                    </g>
                    <g id="Group_55" data-name="Group 55" transform="translate(17.53 9.955)">
                        <path id="Path_82" data-name="Path 82" d="M350.37,544.1Z" transform="translate(-350.37 -544.101)" fill="#7e145c"/>
                    </g>
                    <g id="Group_56" data-name="Group 56" transform="translate(27.47)">
                        <path id="Path_83" data-name="Path 83" d="M361.906,545.738h0c0-.086-.006-.169-.013-.251s-.01-.149-.016-.222l-.01-.08-.019-.14-.013-.086-.019-.134-.016-.083-.029-.13-.016-.08-.032-.134-.019-.073-.038-.137-.022-.064-.045-.14-.019-.06-.029-.083-.013-.032-.041-.1,0-.01-.019-.041-.022-.048c-.032-.067-.067-.137-.1-.2l-.029-.051a5,5,0,0,0-.3-.487l-.038-.057c-.057-.076-.115-.153-.175-.229h0c-.054-.07-.111-.137-.169-.2l-.051-.054c-.048-.048-.092-.1-.14-.143l-.048-.048c-.06-.06-.124-.118-.188-.175l-.006,0c-.064-.057-.127-.108-.194-.159l-.042-.032c-.06-.048-.121-.093-.181-.134l-.022-.016a4.643,4.643,0,0,0-.452-.274h-.006l-.019-.013a3.517,3.517,0,0,0-3.707.381,5.093,5.093,0,0,0-1.7,2.033l-.013.031-.054.153L353.8,544l-.044.137-.026.086-.035.124-.025.1-.029.118-.022.115-.022.111-.022.124-.016.1-.016.137-.013.1-.013.159-.006.083c0,.08-.006.159-.01.242h0v8.874l6.1-5.288,1.247-1.085h0c.045-.042.086-.083.127-.124l.054-.057.064-.073.07-.083.038-.051.08-.105.022-.029c.029-.045.057-.086.083-.13l.006-.01a3.684,3.684,0,0,0,.528-1.8v-.035Z" transform="translate(-353.494 -540.972)" fill="#2162aa"/>
                    </g>
                    <g id="Group_57" data-name="Group 57" transform="translate(0 4.995)">
                        <path id="Path_84" data-name="Path 84" d="M345.395,544.228l.086.124.019.028.079.1.041.048.067.08.067.07.051.054c.041.041.083.083.127.121h0v0l1.247,1.047,6.093,5.113v16.965c0,2.682-1.884,4.858-4.206,4.858s-4.206-2.176-4.206-4.858V542.542a4.056,4.056,0,0,0,.528,1.677Z" transform="translate(-344.86 -542.542)" fill="#ffe200"/>
                    </g>
                    <g id="Group_58" data-name="Group 58" transform="translate(6.586 1.002)">
                        <path id="Path_85" data-name="Path 85" d="M348.709,553.938v-8.874h0c0-.083-.006-.162-.01-.242l-.01-.083-.013-.156-.013-.1-.016-.134-.019-.108-.019-.124-.022-.112-.025-.115-.029-.118-.029-.1-.035-.124-.025-.086-.045-.137-.025-.064-.054-.15-.013-.032c-.3-.738-1.142-1.387-1.375-1.791l11.355,9.329L355,553.451a4.078,4.078,0,0,0-.84,1.225,14.661,14.661,0,0,0-.318,1.54,4.272,4.272,0,0,0,.325,1.721c.041.1.086.188.137.283a5.2,5.2,0,0,0,.608.907c.019.022.4.732.417.751l-6.618-5.94Z" transform="translate(-346.93 -541.287)" fill="#2162aa"/>
                    </g>
                    <g id="Group_59" data-name="Group 59" transform="translate(0 0.053)">
                        <path id="Path_86" data-name="Path 86" d="M344.863,545.756h0c0-.086,0-.169.01-.255s.01-.146.019-.219l.01-.083.016-.14.013-.083.022-.134.016-.082.025-.134.019-.076.032-.134.019-.073.038-.137.019-.067.045-.137.022-.06.029-.086.013-.029.041-.1,0-.01.016-.041.025-.048c.032-.07.064-.137.1-.2l.025-.054c.092-.162.191-.324.3-.483l.041-.057c.054-.076.115-.153.175-.229h0v0c.057-.067.115-.134.172-.2l.051-.054a1.962,1.962,0,0,1,.137-.143l.048-.048c.064-.061.127-.121.191-.175l0,0c.064-.057.131-.111.194-.162l.041-.032c.06-.045.121-.089.185-.134l.022-.016a4.713,4.713,0,0,1,.449-.27l.006,0,.022-.009a3.51,3.51,0,0,1,3.707.382,5.091,5.091,0,0,1,1.693,2.033l.013.032.054.15.026.067.041.134.025.086.035.128.026.1.029.118.025.112.019.111.022.127.016.1.019.137.009.1.013.159.006.079c.006.083.01.163.01.245h0v8.873l-6.093-5.291-1.247-1.082h0v0a1.529,1.529,0,0,1-.127-.124l-.051-.057-.067-.07-.067-.083-.041-.051-.079-.105-.019-.032c-.032-.041-.057-.083-.086-.127l-.006-.01a3.686,3.686,0,0,1-.528-1.8v-.035Z" transform="translate(-344.86 -540.989)" fill="#fff"/>
                    </g>
                    <g id="Group_60" data-name="Group 60" transform="translate(13.436 10.277)">
                        <path id="Path_87" data-name="Path 87" d="M358.058,550.67a4.522,4.522,0,1,1-7.362-3.993l2.892-2.475,2.911,2.485a4.311,4.311,0,0,1,1.559,3.983Z" transform="translate(-349.083 -544.202)" fill="#ffe200"/>
                    </g>
                </g>
            </g>
        </g>
    </g>
</svg>
